<?xml version="1.0" encoding="UTF-8" standalone="no"?>
<!DOCTYPE svg PUBLIC "-//W3C//DTD SVG 1.1//EN"
 "http://www.w3.org/Graphics/SVG/1.1/DTD/svg11.dtd">
<!-- Generated by graphviz version 12.1.1 (20240910.0053)
 -->
<!-- Title: Tree Pages: 1 -->
<svg width="1285pt" height="671pt"
 viewBox="0.00 0.00 1285.25 671.00" xmlns="http://www.w3.org/2000/svg" xmlns:xlink="http://www.w3.org/1999/xlink">
<g id="graph0" class="graph" transform="scale(1 1) rotate(0) translate(4 667)">
<title>Tree</title>
<polygon fill="white" stroke="none" points="-4,4 -4,-667 1281.25,-667 1281.25,4 -4,4"/>
<!-- 0 -->
<g id="node1" class="node">
<title>0</title>
<path fill="#ffffff" stroke="black" d="M692.5,-663C692.5,-663 585,-663 585,-663 579,-663 573,-657 573,-651 573,-651 573,-592 573,-592 573,-586 579,-580 585,-580 585,-580 692.5,-580 692.5,-580 698.5,-580 704.5,-586 704.5,-592 704.5,-592 704.5,-651 704.5,-651 704.5,-657 698.5,-663 692.5,-663"/>
<text text-anchor="start" x="590.38" y="-645.7" font-family="Helvetica,sans-Serif" font-size="14.00">ALLERGY ≤ 1.5</text>
<text text-anchor="start" x="599" y="-630.7" font-family="Helvetica,sans-Serif" font-size="14.00">entropy = 1.0</text>
<text text-anchor="start" x="594.12" y="-615.7" font-family="Helvetica,sans-Serif" font-size="14.00">samples = 193</text>
<text text-anchor="start" x="581" y="-600.7" font-family="Helvetica,sans-Serif" font-size="14.00">value = [96.5, 96.5]</text>
<text text-anchor="start" x="611.75" y="-585.7" font-family="Helvetica,sans-Serif" font-size="14.00">class = 1</text>
</g>
<!-- 1 -->
<g id="node2" class="node">
<title>1</title>
<path fill="#efb285" stroke="black" d="M601.5,-544C601.5,-544 464,-544 464,-544 458,-544 452,-538 452,-532 452,-532 452,-473 452,-473 452,-467 458,-461 464,-461 464,-461 601.5,-461 601.5,-461 607.5,-461 613.5,-467 613.5,-473 613.5,-473 613.5,-532 613.5,-532 613.5,-538 607.5,-544 601.5,-544"/>
<text text-anchor="start" x="478.75" y="-526.7" font-family="Helvetica,sans-Serif" font-size="14.00">WHEEZING ≤ 1.5</text>
<text text-anchor="start" x="485.5" y="-511.7" font-family="Helvetica,sans-Serif" font-size="14.00">entropy = 0.853</text>
<text text-anchor="start" x="491.88" y="-496.7" font-family="Helvetica,sans-Serif" font-size="14.00">samples = 80</text>
<text text-anchor="start" x="460" y="-481.7" font-family="Helvetica,sans-Serif" font-size="14.00">value = [85.365, 32.937]</text>
<text text-anchor="start" x="505.75" y="-466.7" font-family="Helvetica,sans-Serif" font-size="14.00">class = 0</text>
</g>
<!-- 0&#45;&gt;1 -->
<g id="edge1" class="edge">
<title>0&#45;&gt;1</title>
<path fill="none" stroke="black" d="M601.68,-579.58C593.8,-570.89 585.42,-561.63 577.3,-552.67"/>
<polygon fill="black" stroke="black" points="579.95,-550.38 570.64,-545.32 574.76,-555.08 579.95,-550.38"/>
<text text-anchor="middle" x="568.39" y="-563.37" font-family="Helvetica,sans-Serif" font-size="14.00">True</text>
</g>
<!-- 16 -->
<g id="node17" class="node">
<title>16</title>
<path fill="#5caeea" stroke="black" d="M789.5,-544C789.5,-544 652,-544 652,-544 646,-544 640,-538 640,-532 640,-532 640,-473 640,-473 640,-467 646,-461 652,-461 652,-461 789.5,-461 789.5,-461 795.5,-461 801.5,-467 801.5,-473 801.5,-473 801.5,-532 801.5,-532 801.5,-538 795.5,-544 789.5,-544"/>
<text text-anchor="start" x="685.5" y="-526.7" font-family="Helvetica,sans-Serif" font-size="14.00">AGE ≤ 29.5</text>
<text text-anchor="start" x="673.5" y="-511.7" font-family="Helvetica,sans-Serif" font-size="14.00">entropy = 0.607</text>
<text text-anchor="start" x="676.12" y="-496.7" font-family="Helvetica,sans-Serif" font-size="14.00">samples = 113</text>
<text text-anchor="start" x="648" y="-481.7" font-family="Helvetica,sans-Serif" font-size="14.00">value = [11.135, 63.563]</text>
<text text-anchor="start" x="693.75" y="-466.7" font-family="Helvetica,sans-Serif" font-size="14.00">class = 1</text>
</g>
<!-- 0&#45;&gt;16 -->
<g id="edge16" class="edge">
<title>0&#45;&gt;16</title>
<path fill="none" stroke="black" d="M667.43,-579.58C673.33,-571.16 679.61,-562.2 685.71,-553.5"/>
<polygon fill="black" stroke="black" points="688.48,-555.64 691.36,-545.44 682.75,-551.62 688.48,-555.64"/>
<text text-anchor="middle" x="696.56" y="-563.02" font-family="Helvetica,sans-Serif" font-size="14.00">False</text>
</g>
<!-- 2 -->
<g id="node3" class="node">
<title>2</title>
<path fill="#ea9a60" stroke="black" d="M392.88,-425C392.88,-425 248.62,-425 248.62,-425 242.62,-425 236.62,-419 236.62,-413 236.62,-413 236.62,-354 236.62,-354 236.62,-348 242.62,-342 248.62,-342 248.62,-342 392.88,-342 392.88,-342 398.88,-342 404.88,-348 404.88,-354 404.88,-354 404.88,-413 404.88,-413 404.88,-419 398.88,-425 392.88,-425"/>
<text text-anchor="start" x="244.62" y="-407.7" font-family="Helvetica,sans-Serif" font-size="14.00">PEER_PRESSURE ≤ 1.5</text>
<text text-anchor="start" x="273.5" y="-392.7" font-family="Helvetica,sans-Serif" font-size="14.00">entropy = 0.641</text>
<text text-anchor="start" x="279.88" y="-377.7" font-family="Helvetica,sans-Serif" font-size="14.00">samples = 45</text>
<text text-anchor="start" x="248" y="-362.7" font-family="Helvetica,sans-Serif" font-size="14.00">value = [74.231, 14.446]</text>
<text text-anchor="start" x="293.75" y="-347.7" font-family="Helvetica,sans-Serif" font-size="14.00">class = 0</text>
</g>
<!-- 1&#45;&gt;2 -->
<g id="edge2" class="edge">
<title>1&#45;&gt;2</title>
<path fill="none" stroke="black" d="M458.6,-460.58C441.17,-450.96 422.48,-440.64 404.65,-430.81"/>
<polygon fill="black" stroke="black" points="406.63,-427.9 396.18,-426.13 403.24,-434.03 406.63,-427.9"/>
</g>
<!-- 9 -->
<g id="node10" class="node">
<title>9</title>
<path fill="#b0d8f5" stroke="black" d="M601.5,-425C601.5,-425 464,-425 464,-425 458,-425 452,-419 452,-413 452,-413 452,-354 452,-354 452,-348 458,-342 464,-342 464,-342 601.5,-342 601.5,-342 607.5,-342 613.5,-348 613.5,-354 613.5,-354 613.5,-413 613.5,-413 613.5,-419 607.5,-425 601.5,-425"/>
<text text-anchor="start" x="487" y="-407.7" font-family="Helvetica,sans-Serif" font-size="14.00">ANXIETY ≤ 1.5</text>
<text text-anchor="start" x="485.5" y="-392.7" font-family="Helvetica,sans-Serif" font-size="14.00">entropy = 0.955</text>
<text text-anchor="start" x="491.88" y="-377.7" font-family="Helvetica,sans-Serif" font-size="14.00">samples = 35</text>
<text text-anchor="start" x="460" y="-362.7" font-family="Helvetica,sans-Serif" font-size="14.00">value = [11.135, 18.491]</text>
<text text-anchor="start" x="505.75" y="-347.7" font-family="Helvetica,sans-Serif" font-size="14.00">class = 1</text>
</g>
<!-- 1&#45;&gt;9 -->
<g id="edge9" class="edge">
<title>1&#45;&gt;9</title>
<path fill="none" stroke="black" d="M532.75,-460.58C532.75,-452.79 532.75,-444.53 532.75,-436.45"/>
<polygon fill="black" stroke="black" points="536.25,-436.71 532.75,-426.71 529.25,-436.71 536.25,-436.71"/>
</g>
<!-- 3 -->
<g id="node4" class="node">
<title>3</title>
<path fill="#e68540" stroke="black" d="M209.75,-298.5C209.75,-298.5 79.75,-298.5 79.75,-298.5 73.75,-298.5 67.75,-292.5 67.75,-286.5 67.75,-286.5 67.75,-242.5 67.75,-242.5 67.75,-236.5 73.75,-230.5 79.75,-230.5 79.75,-230.5 209.75,-230.5 209.75,-230.5 215.75,-230.5 221.75,-236.5 221.75,-242.5 221.75,-242.5 221.75,-286.5 221.75,-286.5 221.75,-292.5 215.75,-298.5 209.75,-298.5"/>
<text text-anchor="start" x="97.5" y="-281.2" font-family="Helvetica,sans-Serif" font-size="14.00">entropy = 0.206</text>
<text text-anchor="start" x="103.88" y="-266.2" font-family="Helvetica,sans-Serif" font-size="14.00">samples = 17</text>
<text text-anchor="start" x="75.75" y="-251.2" font-family="Helvetica,sans-Serif" font-size="14.00">value = [51.962, 1.734]</text>
<text text-anchor="start" x="117.75" y="-236.2" font-family="Helvetica,sans-Serif" font-size="14.00">class = 0</text>
</g>
<!-- 2&#45;&gt;3 -->
<g id="edge3" class="edge">
<title>2&#45;&gt;3</title>
<path fill="none" stroke="black" d="M259.19,-341.58C241.3,-329.68 221.79,-316.72 204.04,-304.91"/>
<polygon fill="black" stroke="black" points="206.46,-302.32 196.19,-299.7 202.58,-308.15 206.46,-302.32"/>
</g>
<!-- 4 -->
<g id="node5" class="node">
<title>4</title>
<path fill="#f4c9aa" stroke="black" d="M389.5,-306C389.5,-306 252,-306 252,-306 246,-306 240,-300 240,-294 240,-294 240,-235 240,-235 240,-229 246,-223 252,-223 252,-223 389.5,-223 389.5,-223 395.5,-223 401.5,-229 401.5,-235 401.5,-235 401.5,-294 401.5,-294 401.5,-300 395.5,-306 389.5,-306"/>
<text text-anchor="start" x="274.62" y="-288.7" font-family="Helvetica,sans-Serif" font-size="14.00">FATIGUE ≤ 1.5</text>
<text text-anchor="start" x="273.5" y="-273.7" font-family="Helvetica,sans-Serif" font-size="14.00">entropy = 0.945</text>
<text text-anchor="start" x="279.88" y="-258.7" font-family="Helvetica,sans-Serif" font-size="14.00">samples = 28</text>
<text text-anchor="start" x="248" y="-243.7" font-family="Helvetica,sans-Serif" font-size="14.00">value = [22.269, 12.713]</text>
<text text-anchor="start" x="293.75" y="-228.7" font-family="Helvetica,sans-Serif" font-size="14.00">class = 0</text>
</g>
<!-- 2&#45;&gt;4 -->
<g id="edge4" class="edge">
<title>2&#45;&gt;4</title>
<path fill="none" stroke="black" d="M320.75,-341.58C320.75,-333.79 320.75,-325.53 320.75,-317.45"/>
<polygon fill="black" stroke="black" points="324.25,-317.71 320.75,-307.71 317.25,-317.71 324.25,-317.71"/>
</g>
<!-- 5 -->
<g id="node6" class="node">
<title>5</title>
<path fill="#ea9b62" stroke="black" d="M236.75,-187C236.75,-187 106.75,-187 106.75,-187 100.75,-187 94.75,-181 94.75,-175 94.75,-175 94.75,-116 94.75,-116 94.75,-110 100.75,-104 106.75,-104 106.75,-104 236.75,-104 236.75,-104 242.75,-104 248.75,-110 248.75,-116 248.75,-116 248.75,-175 248.75,-175 248.75,-181 242.75,-187 236.75,-187"/>
<text text-anchor="start" x="136.5" y="-169.7" font-family="Helvetica,sans-Serif" font-size="14.00">AGE ≤ 59.5</text>
<text text-anchor="start" x="124.5" y="-154.7" font-family="Helvetica,sans-Serif" font-size="14.00">entropy = 0.662</text>
<text text-anchor="start" x="130.88" y="-139.7" font-family="Helvetica,sans-Serif" font-size="14.00">samples = 14</text>
<text text-anchor="start" x="102.75" y="-124.7" font-family="Helvetica,sans-Serif" font-size="14.00">value = [22.269, 4.623]</text>
<text text-anchor="start" x="144.75" y="-109.7" font-family="Helvetica,sans-Serif" font-size="14.00">class = 0</text>
</g>
<!-- 4&#45;&gt;5 -->
<g id="edge5" class="edge">
<title>4&#45;&gt;5</title>
<path fill="none" stroke="black" d="M268.64,-222.58C257.07,-213.49 244.7,-203.79 232.81,-194.45"/>
<polygon fill="black" stroke="black" points="235.05,-191.76 225.02,-188.33 230.73,-197.26 235.05,-191.76"/>
</g>
<!-- 8 -->
<g id="node9" class="node">
<title>8</title>
<path fill="#399de5" stroke="black" d="M378.75,-179.5C378.75,-179.5 278.75,-179.5 278.75,-179.5 272.75,-179.5 266.75,-173.5 266.75,-167.5 266.75,-167.5 266.75,-123.5 266.75,-123.5 266.75,-117.5 272.75,-111.5 278.75,-111.5 278.75,-111.5 378.75,-111.5 378.75,-111.5 384.75,-111.5 390.75,-117.5 390.75,-123.5 390.75,-123.5 390.75,-167.5 390.75,-167.5 390.75,-173.5 384.75,-179.5 378.75,-179.5"/>
<text text-anchor="start" x="289" y="-162.2" font-family="Helvetica,sans-Serif" font-size="14.00">entropy = 0.0</text>
<text text-anchor="start" x="287.88" y="-147.2" font-family="Helvetica,sans-Serif" font-size="14.00">samples = 14</text>
<text text-anchor="start" x="274.75" y="-132.2" font-family="Helvetica,sans-Serif" font-size="14.00">value = [0.0, 8.09]</text>
<text text-anchor="start" x="301.75" y="-117.2" font-family="Helvetica,sans-Serif" font-size="14.00">class = 1</text>
</g>
<!-- 4&#45;&gt;8 -->
<g id="edge8" class="edge">
<title>4&#45;&gt;8</title>
<path fill="none" stroke="black" d="M323.55,-222.58C324.24,-212.43 324.99,-201.5 325.69,-191.18"/>
<polygon fill="black" stroke="black" points="329.18,-191.59 326.37,-181.37 322.19,-191.11 329.18,-191.59"/>
</g>
<!-- 6 -->
<g id="node7" class="node">
<title>6</title>
<path fill="#399de5" stroke="black" d="M119.5,-68C119.5,-68 12,-68 12,-68 6,-68 0,-62 0,-56 0,-56 0,-12 0,-12 0,-6 6,0 12,0 12,0 119.5,0 119.5,0 125.5,0 131.5,-6 131.5,-12 131.5,-12 131.5,-56 131.5,-56 131.5,-62 125.5,-68 119.5,-68"/>
<text text-anchor="start" x="26" y="-50.7" font-family="Helvetica,sans-Serif" font-size="14.00">entropy = 0.0</text>
<text text-anchor="start" x="28.62" y="-35.7" font-family="Helvetica,sans-Serif" font-size="14.00">samples = 3</text>
<text text-anchor="start" x="8" y="-20.7" font-family="Helvetica,sans-Serif" font-size="14.00">value = [0.0, 1.734]</text>
<text text-anchor="start" x="38.75" y="-5.7" font-family="Helvetica,sans-Serif" font-size="14.00">class = 1</text>
</g>
<!-- 5&#45;&gt;6 -->
<g id="edge6" class="edge">
<title>5&#45;&gt;6</title>
<path fill="none" stroke="black" d="M132.28,-103.73C123.63,-94.79 114.46,-85.32 105.78,-76.36"/>
<polygon fill="black" stroke="black" points="108.51,-74.14 99.04,-69.39 103.48,-79.01 108.51,-74.14"/>
</g>
<!-- 7 -->
<g id="node8" class="node">
<title>7</title>
<path fill="#e89153" stroke="black" d="M291.75,-68C291.75,-68 161.75,-68 161.75,-68 155.75,-68 149.75,-62 149.75,-56 149.75,-56 149.75,-12 149.75,-12 149.75,-6 155.75,0 161.75,0 161.75,0 291.75,0 291.75,0 297.75,0 303.75,-6 303.75,-12 303.75,-12 303.75,-56 303.75,-56 303.75,-62 297.75,-68 291.75,-68"/>
<text text-anchor="start" x="179.5" y="-50.7" font-family="Helvetica,sans-Serif" font-size="14.00">entropy = 0.514</text>
<text text-anchor="start" x="185.88" y="-35.7" font-family="Helvetica,sans-Serif" font-size="14.00">samples = 11</text>
<text text-anchor="start" x="157.75" y="-20.7" font-family="Helvetica,sans-Serif" font-size="14.00">value = [22.269, 2.889]</text>
<text text-anchor="start" x="199.75" y="-5.7" font-family="Helvetica,sans-Serif" font-size="14.00">class = 0</text>
</g>
<!-- 5&#45;&gt;7 -->
<g id="edge7" class="edge">
<title>5&#45;&gt;7</title>
<path fill="none" stroke="black" d="M192.23,-103.73C196.35,-95.52 200.7,-86.86 204.87,-78.56"/>
<polygon fill="black" stroke="black" points="207.98,-80.16 209.34,-69.65 201.73,-77.02 207.98,-80.16"/>
</g>
<!-- 10 -->
<g id="node11" class="node">
<title>10</title>
<path fill="#f4c9aa" stroke="black" d="M617.5,-306C617.5,-306 432,-306 432,-306 426,-306 420,-300 420,-294 420,-294 420,-235 420,-235 420,-229 426,-223 432,-223 432,-223 617.5,-223 617.5,-223 623.5,-223 629.5,-229 629.5,-235 629.5,-235 629.5,-294 629.5,-294 629.5,-300 623.5,-306 617.5,-306"/>
<text text-anchor="start" x="428" y="-288.7" font-family="Helvetica,sans-Serif" font-size="14.00">ALCOHOL_CONSUMING ≤ 1.5</text>
<text text-anchor="start" x="477.5" y="-273.7" font-family="Helvetica,sans-Serif" font-size="14.00">entropy = 0.945</text>
<text text-anchor="start" x="483.88" y="-258.7" font-family="Helvetica,sans-Serif" font-size="14.00">samples = 14</text>
<text text-anchor="start" x="455.75" y="-243.7" font-family="Helvetica,sans-Serif" font-size="14.00">value = [11.135, 6.356]</text>
<text text-anchor="start" x="497.75" y="-228.7" font-family="Helvetica,sans-Serif" font-size="14.00">class = 0</text>
</g>
<!-- 9&#45;&gt;10 -->
<g id="edge10" class="edge">
<title>9&#45;&gt;10</title>
<path fill="none" stroke="black" d="M529.95,-341.58C529.42,-333.79 528.85,-325.53 528.3,-317.45"/>
<polygon fill="black" stroke="black" points="531.81,-317.45 527.64,-307.71 524.83,-317.93 531.81,-317.45"/>
</g>
<!-- 15 -->
<g id="node16" class="node">
<title>15</title>
<path fill="#399de5" stroke="black" d="M774.25,-298.5C774.25,-298.5 659.25,-298.5 659.25,-298.5 653.25,-298.5 647.25,-292.5 647.25,-286.5 647.25,-286.5 647.25,-242.5 647.25,-242.5 647.25,-236.5 653.25,-230.5 659.25,-230.5 659.25,-230.5 774.25,-230.5 774.25,-230.5 780.25,-230.5 786.25,-236.5 786.25,-242.5 786.25,-242.5 786.25,-286.5 786.25,-286.5 786.25,-292.5 780.25,-298.5 774.25,-298.5"/>
<text text-anchor="start" x="674.75" y="-281.2" font-family="Helvetica,sans-Serif" font-size="14.00">entropy = &#45;0.0</text>
<text text-anchor="start" x="675.88" y="-266.2" font-family="Helvetica,sans-Serif" font-size="14.00">samples = 21</text>
<text text-anchor="start" x="655.25" y="-251.2" font-family="Helvetica,sans-Serif" font-size="14.00">value = [0.0, 12.135]</text>
<text text-anchor="start" x="689.75" y="-236.2" font-family="Helvetica,sans-Serif" font-size="14.00">class = 1</text>
</g>
<!-- 9&#45;&gt;15 -->
<g id="edge15" class="edge">
<title>9&#45;&gt;15</title>
<path fill="none" stroke="black" d="M597.1,-341.58C615.81,-329.68 636.2,-316.72 654.76,-304.91"/>
<polygon fill="black" stroke="black" points="656.45,-307.99 663.01,-299.67 652.69,-302.09 656.45,-307.99"/>
</g>
<!-- 11 -->
<g id="node12" class="node">
<title>11</title>
<path fill="#e99558" stroke="black" d="M593.5,-187C593.5,-187 438,-187 438,-187 432,-187 426,-181 426,-175 426,-175 426,-116 426,-116 426,-110 432,-104 438,-104 438,-104 593.5,-104 593.5,-104 599.5,-104 605.5,-110 605.5,-116 605.5,-116 605.5,-175 605.5,-175 605.5,-181 599.5,-187 593.5,-187"/>
<text text-anchor="start" x="434" y="-169.7" font-family="Helvetica,sans-Serif" font-size="14.00">CHRONIC_DISEASE ≤ 1.5</text>
<text text-anchor="start" x="472.25" y="-154.7" font-family="Helvetica,sans-Serif" font-size="14.00">entropy = 0.57</text>
<text text-anchor="start" x="478.62" y="-139.7" font-family="Helvetica,sans-Serif" font-size="14.00">samples = 6</text>
<text text-anchor="start" x="446.75" y="-124.7" font-family="Helvetica,sans-Serif" font-size="14.00">value = [11.135, 1.734]</text>
<text text-anchor="start" x="488.75" y="-109.7" font-family="Helvetica,sans-Serif" font-size="14.00">class = 0</text>
</g>
<!-- 10&#45;&gt;11 -->
<g id="edge11" class="edge">
<title>10&#45;&gt;11</title>
<path fill="none" stroke="black" d="M521.6,-222.58C521,-214.79 520.37,-206.53 519.75,-198.45"/>
<polygon fill="black" stroke="black" points="523.25,-198.41 519,-188.71 516.27,-198.95 523.25,-198.41"/>
</g>
<!-- 14 -->
<g id="node15" class="node">
<title>14</title>
<path fill="#399de5" stroke="black" d="M743.5,-179.5C743.5,-179.5 636,-179.5 636,-179.5 630,-179.5 624,-173.5 624,-167.5 624,-167.5 624,-123.5 624,-123.5 624,-117.5 630,-111.5 636,-111.5 636,-111.5 743.5,-111.5 743.5,-111.5 749.5,-111.5 755.5,-117.5 755.5,-123.5 755.5,-123.5 755.5,-167.5 755.5,-167.5 755.5,-173.5 749.5,-179.5 743.5,-179.5"/>
<text text-anchor="start" x="647.75" y="-162.2" font-family="Helvetica,sans-Serif" font-size="14.00">entropy = &#45;0.0</text>
<text text-anchor="start" x="652.62" y="-147.2" font-family="Helvetica,sans-Serif" font-size="14.00">samples = 8</text>
<text text-anchor="start" x="632" y="-132.2" font-family="Helvetica,sans-Serif" font-size="14.00">value = [0.0, 4.623]</text>
<text text-anchor="start" x="662.75" y="-117.2" font-family="Helvetica,sans-Serif" font-size="14.00">class = 1</text>
</g>
<!-- 10&#45;&gt;14 -->
<g id="edge14" class="edge">
<title>10&#45;&gt;14</title>
<path fill="none" stroke="black" d="M582.46,-222.58C599.08,-210.79 617.19,-197.95 633.71,-186.24"/>
<polygon fill="black" stroke="black" points="635.33,-189.38 641.47,-180.74 631.29,-183.67 635.33,-189.38"/>
</g>
<!-- 12 -->
<g id="node13" class="node">
<title>12</title>
<path fill="#e58139" stroke="black" d="M463.5,-68C463.5,-68 356,-68 356,-68 350,-68 344,-62 344,-56 344,-56 344,-12 344,-12 344,-6 350,0 356,0 356,0 463.5,0 463.5,0 469.5,0 475.5,-6 475.5,-12 475.5,-12 475.5,-56 475.5,-56 475.5,-62 469.5,-68 463.5,-68"/>
<text text-anchor="start" x="370" y="-50.7" font-family="Helvetica,sans-Serif" font-size="14.00">entropy = 0.0</text>
<text text-anchor="start" x="372.62" y="-35.7" font-family="Helvetica,sans-Serif" font-size="14.00">samples = 2</text>
<text text-anchor="start" x="352" y="-20.7" font-family="Helvetica,sans-Serif" font-size="14.00">value = [7.423, 0.0]</text>
<text text-anchor="start" x="382.75" y="-5.7" font-family="Helvetica,sans-Serif" font-size="14.00">class = 0</text>
</g>
<!-- 11&#45;&gt;12 -->
<g id="edge12" class="edge">
<title>11&#45;&gt;12</title>
<path fill="none" stroke="black" d="M476.28,-103.73C467.63,-94.79 458.46,-85.32 449.78,-76.36"/>
<polygon fill="black" stroke="black" points="452.51,-74.14 443.04,-69.39 447.48,-79.01 452.51,-74.14"/>
</g>
<!-- 13 -->
<g id="node14" class="node">
<title>13</title>
<path fill="#f1bc95" stroke="black" d="M628,-68C628,-68 505.5,-68 505.5,-68 499.5,-68 493.5,-62 493.5,-56 493.5,-56 493.5,-12 493.5,-12 493.5,-6 499.5,0 505.5,0 505.5,0 628,0 628,0 634,0 640,-6 640,-12 640,-12 640,-56 640,-56 640,-62 634,-68 628,-68"/>
<text text-anchor="start" x="519.5" y="-50.7" font-family="Helvetica,sans-Serif" font-size="14.00">entropy = 0.903</text>
<text text-anchor="start" x="529.62" y="-35.7" font-family="Helvetica,sans-Serif" font-size="14.00">samples = 4</text>
<text text-anchor="start" x="501.5" y="-20.7" font-family="Helvetica,sans-Serif" font-size="14.00">value = [3.712, 1.734]</text>
<text text-anchor="start" x="539.75" y="-5.7" font-family="Helvetica,sans-Serif" font-size="14.00">class = 0</text>
</g>
<!-- 11&#45;&gt;13 -->
<g id="edge13" class="edge">
<title>11&#45;&gt;13</title>
<path fill="none" stroke="black" d="M534.74,-103.73C538.56,-95.52 542.6,-86.86 546.46,-78.56"/>
<polygon fill="black" stroke="black" points="549.55,-80.21 550.6,-69.67 543.21,-77.26 549.55,-80.21"/>
</g>
<!-- 17 -->
<g id="node18" class="node">
<title>17</title>
<path fill="#e58139" stroke="black" d="M774.5,-417.5C774.5,-417.5 667,-417.5 667,-417.5 661,-417.5 655,-411.5 655,-405.5 655,-405.5 655,-361.5 655,-361.5 655,-355.5 661,-349.5 667,-349.5 667,-349.5 774.5,-349.5 774.5,-349.5 780.5,-349.5 786.5,-355.5 786.5,-361.5 786.5,-361.5 786.5,-405.5 786.5,-405.5 786.5,-411.5 780.5,-417.5 774.5,-417.5"/>
<text text-anchor="start" x="681" y="-400.2" font-family="Helvetica,sans-Serif" font-size="14.00">entropy = 0.0</text>
<text text-anchor="start" x="683.62" y="-385.2" font-family="Helvetica,sans-Serif" font-size="14.00">samples = 1</text>
<text text-anchor="start" x="663" y="-370.2" font-family="Helvetica,sans-Serif" font-size="14.00">value = [3.712, 0.0]</text>
<text text-anchor="start" x="693.75" y="-355.2" font-family="Helvetica,sans-Serif" font-size="14.00">class = 0</text>
</g>
<!-- 16&#45;&gt;17 -->
<g id="edge17" class="edge">
<title>16&#45;&gt;17</title>
<path fill="none" stroke="black" d="M720.75,-460.58C720.75,-450.43 720.75,-439.5 720.75,-429.18"/>
<polygon fill="black" stroke="black" points="724.25,-429.37 720.75,-419.37 717.25,-429.37 724.25,-429.37"/>
</g>
<!-- 18 -->
<g id="node19" class="node">
<title>18</title>
<path fill="#50a8e8" stroke="black" d="M984.62,-425C984.62,-425 832.88,-425 832.88,-425 826.88,-425 820.88,-419 820.88,-413 820.88,-413 820.88,-354 820.88,-354 820.88,-348 826.88,-342 832.88,-342 832.88,-342 984.62,-342 984.62,-342 990.62,-342 996.62,-348 996.62,-354 996.62,-354 996.62,-413 996.62,-413 996.62,-419 990.62,-425 984.62,-425"/>
<text text-anchor="start" x="828.88" y="-407.7" font-family="Helvetica,sans-Serif" font-size="14.00">YELLOW_FINGERS ≤ 1.5</text>
<text text-anchor="start" x="861.5" y="-392.7" font-family="Helvetica,sans-Serif" font-size="14.00">entropy = 0.483</text>
<text text-anchor="start" x="864.12" y="-377.7" font-family="Helvetica,sans-Serif" font-size="14.00">samples = 112</text>
<text text-anchor="start" x="839.75" y="-362.7" font-family="Helvetica,sans-Serif" font-size="14.00">value = [7.423, 63.563]</text>
<text text-anchor="start" x="881.75" y="-347.7" font-family="Helvetica,sans-Serif" font-size="14.00">class = 1</text>
</g>
<!-- 16&#45;&gt;18 -->
<g id="edge18" class="edge">
<title>16&#45;&gt;18</title>
<path fill="none" stroke="black" d="M786.5,-460.58C801.67,-451.14 817.92,-441.02 833.47,-431.35"/>
<polygon fill="black" stroke="black" points="835.11,-434.45 841.75,-426.2 831.41,-428.51 835.11,-434.45"/>
</g>
<!-- 19 -->
<g id="node20" class="node">
<title>19</title>
<path fill="#6ab5eb" stroke="black" d="M1001.5,-306C1001.5,-306 816,-306 816,-306 810,-306 804,-300 804,-294 804,-294 804,-235 804,-235 804,-229 810,-223 816,-223 816,-223 1001.5,-223 1001.5,-223 1007.5,-223 1013.5,-229 1013.5,-235 1013.5,-235 1013.5,-294 1013.5,-294 1013.5,-300 1007.5,-306 1001.5,-306"/>
<text text-anchor="start" x="812" y="-288.7" font-family="Helvetica,sans-Serif" font-size="14.00">ALCOHOL_CONSUMING ≤ 1.5</text>
<text text-anchor="start" x="861.5" y="-273.7" font-family="Helvetica,sans-Serif" font-size="14.00">entropy = 0.718</text>
<text text-anchor="start" x="867.88" y="-258.7" font-family="Helvetica,sans-Serif" font-size="14.00">samples = 54</text>
<text text-anchor="start" x="839.75" y="-243.7" font-family="Helvetica,sans-Serif" font-size="14.00">value = [7.423, 30.048]</text>
<text text-anchor="start" x="881.75" y="-228.7" font-family="Helvetica,sans-Serif" font-size="14.00">class = 1</text>
</g>
<!-- 18&#45;&gt;19 -->
<g id="edge19" class="edge">
<title>18&#45;&gt;19</title>
<path fill="none" stroke="black" d="M908.75,-341.58C908.75,-333.79 908.75,-325.53 908.75,-317.45"/>
<polygon fill="black" stroke="black" points="912.25,-317.71 908.75,-307.71 905.25,-317.71 912.25,-317.71"/>
</g>
<!-- 26 -->
<g id="node27" class="node">
<title>26</title>
<path fill="#399de5" stroke="black" d="M1158.25,-298.5C1158.25,-298.5 1043.25,-298.5 1043.25,-298.5 1037.25,-298.5 1031.25,-292.5 1031.25,-286.5 1031.25,-286.5 1031.25,-242.5 1031.25,-242.5 1031.25,-236.5 1037.25,-230.5 1043.25,-230.5 1043.25,-230.5 1158.25,-230.5 1158.25,-230.5 1164.25,-230.5 1170.25,-236.5 1170.25,-242.5 1170.25,-242.5 1170.25,-286.5 1170.25,-286.5 1170.25,-292.5 1164.25,-298.5 1158.25,-298.5"/>
<text text-anchor="start" x="1061" y="-281.2" font-family="Helvetica,sans-Serif" font-size="14.00">entropy = 0.0</text>
<text text-anchor="start" x="1059.88" y="-266.2" font-family="Helvetica,sans-Serif" font-size="14.00">samples = 58</text>
<text text-anchor="start" x="1039.25" y="-251.2" font-family="Helvetica,sans-Serif" font-size="14.00">value = [0.0, 33.515]</text>
<text text-anchor="start" x="1073.75" y="-236.2" font-family="Helvetica,sans-Serif" font-size="14.00">class = 1</text>
</g>
<!-- 18&#45;&gt;26 -->
<g id="edge26" class="edge">
<title>18&#45;&gt;26</title>
<path fill="none" stroke="black" d="M975.9,-341.58C995.51,-329.63 1016.9,-316.6 1036.34,-304.75"/>
<polygon fill="black" stroke="black" points="1037.99,-307.84 1044.71,-299.65 1034.35,-301.86 1037.99,-307.84"/>
</g>
<!-- 20 -->
<g id="node21" class="node">
<title>20</title>
<path fill="#f5cfb4" stroke="black" d="M943,-187C943,-187 820.5,-187 820.5,-187 814.5,-187 808.5,-181 808.5,-175 808.5,-175 808.5,-116 808.5,-116 808.5,-110 814.5,-104 820.5,-104 820.5,-104 943,-104 943,-104 949,-104 955,-110 955,-116 955,-116 955,-175 955,-175 955,-181 949,-187 943,-187"/>
<text text-anchor="start" x="846.5" y="-169.7" font-family="Helvetica,sans-Serif" font-size="14.00">AGE ≤ 60.0</text>
<text text-anchor="start" x="834.5" y="-154.7" font-family="Helvetica,sans-Serif" font-size="14.00">entropy = 0.961</text>
<text text-anchor="start" x="844.62" y="-139.7" font-family="Helvetica,sans-Serif" font-size="14.00">samples = 5</text>
<text text-anchor="start" x="816.5" y="-124.7" font-family="Helvetica,sans-Serif" font-size="14.00">value = [3.712, 2.311]</text>
<text text-anchor="start" x="854.75" y="-109.7" font-family="Helvetica,sans-Serif" font-size="14.00">class = 0</text>
</g>
<!-- 19&#45;&gt;20 -->
<g id="edge20" class="edge">
<title>19&#45;&gt;20</title>
<path fill="none" stroke="black" d="M899.31,-222.58C897.49,-214.7 895.56,-206.34 893.67,-198.17"/>
<polygon fill="black" stroke="black" points="897.14,-197.63 891.48,-188.68 890.32,-199.21 897.14,-197.63"/>
</g>
<!-- 23 -->
<g id="node24" class="node">
<title>23</title>
<path fill="#53aae8" stroke="black" d="M1114.75,-187C1114.75,-187 984.75,-187 984.75,-187 978.75,-187 972.75,-181 972.75,-175 972.75,-175 972.75,-116 972.75,-116 972.75,-110 978.75,-104 984.75,-104 984.75,-104 1114.75,-104 1114.75,-104 1120.75,-104 1126.75,-110 1126.75,-116 1126.75,-116 1126.75,-175 1126.75,-175 1126.75,-181 1120.75,-187 1114.75,-187"/>
<text text-anchor="start" x="1003.62" y="-169.7" font-family="Helvetica,sans-Serif" font-size="14.00">FATIGUE ≤ 1.5</text>
<text text-anchor="start" x="1002.5" y="-154.7" font-family="Helvetica,sans-Serif" font-size="14.00">entropy = 0.524</text>
<text text-anchor="start" x="1008.88" y="-139.7" font-family="Helvetica,sans-Serif" font-size="14.00">samples = 49</text>
<text text-anchor="start" x="980.75" y="-124.7" font-family="Helvetica,sans-Serif" font-size="14.00">value = [3.712, 27.737]</text>
<text text-anchor="start" x="1022.75" y="-109.7" font-family="Helvetica,sans-Serif" font-size="14.00">class = 1</text>
</g>
<!-- 19&#45;&gt;23 -->
<g id="edge23" class="edge">
<title>19&#45;&gt;23</title>
<path fill="none" stroke="black" d="M958.06,-222.58C969.08,-213.44 980.85,-203.67 992.16,-194.29"/>
<polygon fill="black" stroke="black" points="994.08,-197.25 999.54,-188.17 989.61,-191.86 994.08,-197.25"/>
</g>
<!-- 21 -->
<g id="node22" class="node">
<title>21</title>
<path fill="#e58139" stroke="black" d="M788.5,-68C788.5,-68 681,-68 681,-68 675,-68 669,-62 669,-56 669,-56 669,-12 669,-12 669,-6 675,0 681,0 681,0 788.5,0 788.5,0 794.5,0 800.5,-6 800.5,-12 800.5,-12 800.5,-56 800.5,-56 800.5,-62 794.5,-68 788.5,-68"/>
<text text-anchor="start" x="695" y="-50.7" font-family="Helvetica,sans-Serif" font-size="14.00">entropy = 0.0</text>
<text text-anchor="start" x="697.62" y="-35.7" font-family="Helvetica,sans-Serif" font-size="14.00">samples = 1</text>
<text text-anchor="start" x="677" y="-20.7" font-family="Helvetica,sans-Serif" font-size="14.00">value = [3.712, 0.0]</text>
<text text-anchor="start" x="707.75" y="-5.7" font-family="Helvetica,sans-Serif" font-size="14.00">class = 0</text>
</g>
<!-- 20&#45;&gt;21 -->
<g id="edge21" class="edge">
<title>20&#45;&gt;21</title>
<path fill="none" stroke="black" d="M827.01,-103.73C814.4,-94.33 801,-84.35 788.43,-74.99"/>
<polygon fill="black" stroke="black" points="790.78,-72.37 780.67,-69.2 786.6,-77.98 790.78,-72.37"/>
</g>
<!-- 22 -->
<g id="node23" class="node">
<title>22</title>
<path fill="#399de5" stroke="black" d="M938.5,-68C938.5,-68 831,-68 831,-68 825,-68 819,-62 819,-56 819,-56 819,-12 819,-12 819,-6 825,0 831,0 831,0 938.5,0 938.5,0 944.5,0 950.5,-6 950.5,-12 950.5,-12 950.5,-56 950.5,-56 950.5,-62 944.5,-68 938.5,-68"/>
<text text-anchor="start" x="845" y="-50.7" font-family="Helvetica,sans-Serif" font-size="14.00">entropy = 0.0</text>
<text text-anchor="start" x="847.62" y="-35.7" font-family="Helvetica,sans-Serif" font-size="14.00">samples = 4</text>
<text text-anchor="start" x="827" y="-20.7" font-family="Helvetica,sans-Serif" font-size="14.00">value = [0.0, 2.311]</text>
<text text-anchor="start" x="857.75" y="-5.7" font-family="Helvetica,sans-Serif" font-size="14.00">class = 1</text>
</g>
<!-- 20&#45;&gt;22 -->
<g id="edge22" class="edge">
<title>20&#45;&gt;22</title>
<path fill="none" stroke="black" d="M882.87,-103.73C883.08,-95.88 883.31,-87.63 883.53,-79.67"/>
<polygon fill="black" stroke="black" points="887.02,-79.9 883.8,-69.81 880.02,-79.71 887.02,-79.9"/>
</g>
<!-- 24 -->
<g id="node25" class="node">
<title>24</title>
<path fill="#a3d1f3" stroke="black" d="M1108,-68C1108,-68 985.5,-68 985.5,-68 979.5,-68 973.5,-62 973.5,-56 973.5,-56 973.5,-12 973.5,-12 973.5,-6 979.5,0 985.5,0 985.5,0 1108,0 1108,0 1114,0 1120,-6 1120,-12 1120,-12 1120,-56 1120,-56 1120,-62 1114,-68 1108,-68"/>
<text text-anchor="start" x="999.5" y="-50.7" font-family="Helvetica,sans-Serif" font-size="14.00">entropy = 0.933</text>
<text text-anchor="start" x="1005.88" y="-35.7" font-family="Helvetica,sans-Serif" font-size="14.00">samples = 13</text>
<text text-anchor="start" x="981.5" y="-20.7" font-family="Helvetica,sans-Serif" font-size="14.00">value = [3.712, 6.934]</text>
<text text-anchor="start" x="1019.75" y="-5.7" font-family="Helvetica,sans-Serif" font-size="14.00">class = 1</text>
</g>
<!-- 23&#45;&gt;24 -->
<g id="edge24" class="edge">
<title>23&#45;&gt;24</title>
<path fill="none" stroke="black" d="M1048.63,-103.73C1048.42,-95.88 1048.19,-87.63 1047.97,-79.67"/>
<polygon fill="black" stroke="black" points="1051.48,-79.71 1047.7,-69.81 1044.48,-79.9 1051.48,-79.71"/>
</g>
<!-- 25 -->
<g id="node26" class="node">
<title>25</title>
<path fill="#399de5" stroke="black" d="M1265.25,-68C1265.25,-68 1150.25,-68 1150.25,-68 1144.25,-68 1138.25,-62 1138.25,-56 1138.25,-56 1138.25,-12 1138.25,-12 1138.25,-6 1144.25,0 1150.25,0 1150.25,0 1265.25,0 1265.25,0 1271.25,0 1277.25,-6 1277.25,-12 1277.25,-12 1277.25,-56 1277.25,-56 1277.25,-62 1271.25,-68 1265.25,-68"/>
<text text-anchor="start" x="1168" y="-50.7" font-family="Helvetica,sans-Serif" font-size="14.00">entropy = 0.0</text>
<text text-anchor="start" x="1166.88" y="-35.7" font-family="Helvetica,sans-Serif" font-size="14.00">samples = 36</text>
<text text-anchor="start" x="1146.25" y="-20.7" font-family="Helvetica,sans-Serif" font-size="14.00">value = [0.0, 20.802]</text>
<text text-anchor="start" x="1180.75" y="-5.7" font-family="Helvetica,sans-Serif" font-size="14.00">class = 1</text>
</g>
<!-- 23&#45;&gt;25 -->
<g id="edge25" class="edge">
<title>23&#45;&gt;25</title>
<path fill="none" stroke="black" d="M1108.58,-103.73C1122.2,-94.29 1136.67,-84.26 1150.23,-74.86"/>
<polygon fill="black" stroke="black" points="1151.98,-77.91 1158.21,-69.34 1147.99,-72.16 1151.98,-77.91"/>
</g>
</g>
</svg>
