<?xml version="1.0" encoding="UTF-8" standalone="no"?>
<!DOCTYPE svg PUBLIC "-//W3C//DTD SVG 1.1//EN"
 "http://www.w3.org/Graphics/SVG/1.1/DTD/svg11.dtd">
<!-- Generated by graphviz version 12.1.1 (20240910.0053)
 -->
<!-- Title: Tree Pages: 1 -->
<svg width="489pt" height="552pt"
 viewBox="0.00 0.00 488.50 552.00" xmlns="http://www.w3.org/2000/svg" xmlns:xlink="http://www.w3.org/1999/xlink">
<g id="graph0" class="graph" transform="scale(1 1) rotate(0) translate(4 548)">
<title>Tree</title>
<polygon fill="white" stroke="none" points="-4,4 -4,-548 484.5,-548 484.5,4 -4,4"/>
<!-- 0 -->
<g id="node1" class="node">
<title>0</title>
<path fill="#ffffff" stroke="black" d="M285.75,-544C285.75,-544 178.25,-544 178.25,-544 172.25,-544 166.25,-538 166.25,-532 166.25,-532 166.25,-473 166.25,-473 166.25,-467 172.25,-461 178.25,-461 178.25,-461 285.75,-461 285.75,-461 291.75,-461 297.75,-467 297.75,-473 297.75,-473 297.75,-532 297.75,-532 297.75,-538 291.75,-544 285.75,-544"/>
<text text-anchor="start" x="176.88" y="-526.7" font-family="Helvetica,sans-Serif" font-size="14.00">COUGHING ≤ 1.5</text>
<text text-anchor="start" x="204.25" y="-511.7" font-family="Helvetica,sans-Serif" font-size="14.00">gini = 0.5</text>
<text text-anchor="start" x="187.38" y="-496.7" font-family="Helvetica,sans-Serif" font-size="14.00">samples = 129</text>
<text text-anchor="start" x="174.25" y="-481.7" font-family="Helvetica,sans-Serif" font-size="14.00">value = [96.5, 96.5]</text>
<text text-anchor="start" x="205" y="-466.7" font-family="Helvetica,sans-Serif" font-size="14.00">class = 1</text>
</g>
<!-- 1 -->
<g id="node2" class="node">
<title>1</title>
<path fill="#efb185" stroke="black" d="M206.75,-417.5C206.75,-417.5 69.25,-417.5 69.25,-417.5 63.25,-417.5 57.25,-411.5 57.25,-405.5 57.25,-405.5 57.25,-361.5 57.25,-361.5 57.25,-355.5 63.25,-349.5 69.25,-349.5 69.25,-349.5 206.75,-349.5 206.75,-349.5 212.75,-349.5 218.75,-355.5 218.75,-361.5 218.75,-361.5 218.75,-405.5 218.75,-405.5 218.75,-411.5 212.75,-417.5 206.75,-417.5"/>
<text text-anchor="start" x="110.25" y="-400.2" font-family="Helvetica,sans-Serif" font-size="14.00">gini = 0.4</text>
<text text-anchor="start" x="97.12" y="-385.2" font-family="Helvetica,sans-Serif" font-size="14.00">samples = 52</text>
<text text-anchor="start" x="65.25" y="-370.2" font-family="Helvetica,sans-Serif" font-size="14.00">value = [74.231, 28.314]</text>
<text text-anchor="start" x="111" y="-355.2" font-family="Helvetica,sans-Serif" font-size="14.00">class = 0</text>
</g>
<!-- 0&#45;&gt;1 -->
<g id="edge1" class="edge">
<title>0&#45;&gt;1</title>
<path fill="none" stroke="black" d="M199.12,-460.58C190.27,-449.56 180.67,-437.61 171.77,-426.53"/>
<polygon fill="black" stroke="black" points="174.74,-424.64 165.75,-419.04 169.29,-429.03 174.74,-424.64"/>
<text text-anchor="middle" x="162.09" y="-436.91" font-family="Helvetica,sans-Serif" font-size="14.00">True</text>
</g>
<!-- 2 -->
<g id="node3" class="node">
<title>2</title>
<path fill="#7abded" stroke="black" d="M404.75,-425C404.75,-425 249.25,-425 249.25,-425 243.25,-425 237.25,-419 237.25,-413 237.25,-413 237.25,-354 237.25,-354 237.25,-348 243.25,-342 249.25,-342 249.25,-342 404.75,-342 404.75,-342 410.75,-342 416.75,-348 416.75,-354 416.75,-354 416.75,-413 416.75,-413 416.75,-419 410.75,-425 404.75,-425"/>
<text text-anchor="start" x="245.25" y="-407.7" font-family="Helvetica,sans-Serif" font-size="14.00">CHRONIC_DISEASE ≤ 1.5</text>
<text text-anchor="start" x="291.75" y="-392.7" font-family="Helvetica,sans-Serif" font-size="14.00">gini = 0.371</text>
<text text-anchor="start" x="286.12" y="-377.7" font-family="Helvetica,sans-Serif" font-size="14.00">samples = 77</text>
<text text-anchor="start" x="254.25" y="-362.7" font-family="Helvetica,sans-Serif" font-size="14.00">value = [22.269, 68.186]</text>
<text text-anchor="start" x="300" y="-347.7" font-family="Helvetica,sans-Serif" font-size="14.00">class = 1</text>
</g>
<!-- 0&#45;&gt;2 -->
<g id="edge2" class="edge">
<title>0&#45;&gt;2</title>
<path fill="none" stroke="black" d="M265.23,-460.58C272.21,-451.98 279.65,-442.82 286.85,-433.95"/>
<polygon fill="black" stroke="black" points="289.41,-436.34 293,-426.38 283.98,-431.93 289.41,-436.34"/>
<text text-anchor="middle" x="296.53" y="-444.27" font-family="Helvetica,sans-Serif" font-size="14.00">False</text>
</g>
<!-- 3 -->
<g id="node4" class="node">
<title>3</title>
<path fill="#bddef6" stroke="black" d="M311.75,-306C311.75,-306 174.25,-306 174.25,-306 168.25,-306 162.25,-300 162.25,-294 162.25,-294 162.25,-235 162.25,-235 162.25,-229 168.25,-223 174.25,-223 174.25,-223 311.75,-223 311.75,-223 317.75,-223 323.75,-229 323.75,-235 323.75,-235 323.75,-294 323.75,-294 323.75,-300 317.75,-306 311.75,-306"/>
<text text-anchor="start" x="196.88" y="-288.7" font-family="Helvetica,sans-Serif" font-size="14.00">FATIGUE ≤ 1.5</text>
<text text-anchor="start" x="211.5" y="-273.7" font-family="Helvetica,sans-Serif" font-size="14.00">gini = 0.48</text>
<text text-anchor="start" x="202.12" y="-258.7" font-family="Helvetica,sans-Serif" font-size="14.00">samples = 40</text>
<text text-anchor="start" x="170.25" y="-243.7" font-family="Helvetica,sans-Serif" font-size="14.00">value = [22.269, 33.515]</text>
<text text-anchor="start" x="216" y="-228.7" font-family="Helvetica,sans-Serif" font-size="14.00">class = 1</text>
</g>
<!-- 2&#45;&gt;3 -->
<g id="edge3" class="edge">
<title>2&#45;&gt;3</title>
<path fill="none" stroke="black" d="M297.62,-341.58C291.58,-333.16 285.15,-324.2 278.9,-315.5"/>
<polygon fill="black" stroke="black" points="281.78,-313.51 273.1,-307.43 276.09,-317.59 281.78,-313.51"/>
</g>
<!-- 4 -->
<g id="node9" class="node">
<title>4</title>
<path fill="#399de5" stroke="black" d="M468.5,-298.5C468.5,-298.5 353.5,-298.5 353.5,-298.5 347.5,-298.5 341.5,-292.5 341.5,-286.5 341.5,-286.5 341.5,-242.5 341.5,-242.5 341.5,-236.5 347.5,-230.5 353.5,-230.5 353.5,-230.5 468.5,-230.5 468.5,-230.5 474.5,-230.5 480.5,-236.5 480.5,-242.5 480.5,-242.5 480.5,-286.5 480.5,-286.5 480.5,-292.5 474.5,-298.5 468.5,-298.5"/>
<text text-anchor="start" x="383.25" y="-281.2" font-family="Helvetica,sans-Serif" font-size="14.00">gini = 0.0</text>
<text text-anchor="start" x="370.12" y="-266.2" font-family="Helvetica,sans-Serif" font-size="14.00">samples = 37</text>
<text text-anchor="start" x="349.5" y="-251.2" font-family="Helvetica,sans-Serif" font-size="14.00">value = [0.0, 34.671]</text>
<text text-anchor="start" x="384" y="-236.2" font-family="Helvetica,sans-Serif" font-size="14.00">class = 1</text>
</g>
<!-- 2&#45;&gt;4 -->
<g id="edge8" class="edge">
<title>2&#45;&gt;4</title>
<path fill="none" stroke="black" d="M356.38,-341.58C364.14,-330.77 372.53,-319.09 380.35,-308.19"/>
<polygon fill="black" stroke="black" points="383.18,-310.26 386.17,-300.09 377.49,-306.17 383.18,-310.26"/>
</g>
<!-- 5 -->
<g id="node5" class="node">
<title>5</title>
<path fill="#eca470" stroke="black" d="M222,-187C222,-187 92,-187 92,-187 86,-187 80,-181 80,-175 80,-175 80,-116 80,-116 80,-110 86,-104 92,-104 92,-104 222,-104 222,-104 228,-104 234,-110 234,-116 234,-116 234,-175 234,-175 234,-181 228,-187 222,-187"/>
<text text-anchor="start" x="108.62" y="-169.7" font-family="Helvetica,sans-Serif" font-size="14.00">ALLERGY ≤ 1.5</text>
<text text-anchor="start" x="121.75" y="-154.7" font-family="Helvetica,sans-Serif" font-size="14.00">gini = 0.342</text>
<text text-anchor="start" x="116.12" y="-139.7" font-family="Helvetica,sans-Serif" font-size="14.00">samples = 10</text>
<text text-anchor="start" x="88" y="-124.7" font-family="Helvetica,sans-Serif" font-size="14.00">value = [18.558, 5.201]</text>
<text text-anchor="start" x="130" y="-109.7" font-family="Helvetica,sans-Serif" font-size="14.00">class = 0</text>
</g>
<!-- 3&#45;&gt;5 -->
<g id="edge4" class="edge">
<title>3&#45;&gt;5</title>
<path fill="none" stroke="black" d="M212.92,-222.58C206.67,-214.07 200.01,-205.01 193.55,-196.23"/>
<polygon fill="black" stroke="black" points="196.56,-194.4 187.81,-188.42 190.92,-198.55 196.56,-194.4"/>
</g>
<!-- 6 -->
<g id="node8" class="node">
<title>6</title>
<path fill="#53aae8" stroke="black" d="M394,-179.5C394,-179.5 264,-179.5 264,-179.5 258,-179.5 252,-173.5 252,-167.5 252,-167.5 252,-123.5 252,-123.5 252,-117.5 258,-111.5 264,-111.5 264,-111.5 394,-111.5 394,-111.5 400,-111.5 406,-117.5 406,-123.5 406,-123.5 406,-167.5 406,-167.5 406,-173.5 400,-179.5 394,-179.5"/>
<text text-anchor="start" x="293.75" y="-162.2" font-family="Helvetica,sans-Serif" font-size="14.00">gini = 0.205</text>
<text text-anchor="start" x="288.12" y="-147.2" font-family="Helvetica,sans-Serif" font-size="14.00">samples = 30</text>
<text text-anchor="start" x="260" y="-132.2" font-family="Helvetica,sans-Serif" font-size="14.00">value = [3.712, 28.314]</text>
<text text-anchor="start" x="302" y="-117.2" font-family="Helvetica,sans-Serif" font-size="14.00">class = 1</text>
</g>
<!-- 3&#45;&gt;6 -->
<g id="edge7" class="edge">
<title>3&#45;&gt;6</title>
<path fill="none" stroke="black" d="M273.08,-222.58C281.1,-211.66 289.79,-199.85 297.86,-188.86"/>
<polygon fill="black" stroke="black" points="300.48,-191.21 303.58,-181.08 294.84,-187.07 300.48,-191.21"/>
</g>
<!-- 7 -->
<g id="node6" class="node">
<title>7</title>
<path fill="#e78945" stroke="black" d="M142,-68C142,-68 12,-68 12,-68 6,-68 0,-62 0,-56 0,-56 0,-12 0,-12 0,-6 6,0 12,0 12,0 142,0 142,0 148,0 154,-6 154,-12 154,-12 154,-56 154,-56 154,-62 148,-68 142,-68"/>
<text text-anchor="start" x="45.5" y="-50.7" font-family="Helvetica,sans-Serif" font-size="14.00">gini = 0.11</text>
<text text-anchor="start" x="39.88" y="-35.7" font-family="Helvetica,sans-Serif" font-size="14.00">samples = 4</text>
<text text-anchor="start" x="8" y="-20.7" font-family="Helvetica,sans-Serif" font-size="14.00">value = [18.558, 1.156]</text>
<text text-anchor="start" x="50" y="-5.7" font-family="Helvetica,sans-Serif" font-size="14.00">class = 0</text>
</g>
<!-- 5&#45;&gt;7 -->
<g id="edge5" class="edge">
<title>5&#45;&gt;7</title>
<path fill="none" stroke="black" d="M127.21,-103.73C120.95,-95.15 114.33,-86.09 108.02,-77.46"/>
<polygon fill="black" stroke="black" points="110.95,-75.53 102.22,-69.52 105.29,-79.66 110.95,-75.53"/>
</g>
<!-- 8 -->
<g id="node7" class="node">
<title>8</title>
<path fill="#399de5" stroke="black" d="M291.75,-68C291.75,-68 184.25,-68 184.25,-68 178.25,-68 172.25,-62 172.25,-56 172.25,-56 172.25,-12 172.25,-12 172.25,-6 178.25,0 184.25,0 184.25,0 291.75,0 291.75,0 297.75,0 303.75,-6 303.75,-12 303.75,-12 303.75,-56 303.75,-56 303.75,-62 297.75,-68 291.75,-68"/>
<text text-anchor="start" x="208" y="-50.7" font-family="Helvetica,sans-Serif" font-size="14.00">gini = &#45;0.0</text>
<text text-anchor="start" x="200.88" y="-35.7" font-family="Helvetica,sans-Serif" font-size="14.00">samples = 6</text>
<text text-anchor="start" x="180.25" y="-20.7" font-family="Helvetica,sans-Serif" font-size="14.00">value = [0.0, 4.045]</text>
<text text-anchor="start" x="211" y="-5.7" font-family="Helvetica,sans-Serif" font-size="14.00">class = 1</text>
</g>
<!-- 5&#45;&gt;8 -->
<g id="edge6" class="edge">
<title>5&#45;&gt;8</title>
<path fill="none" stroke="black" d="M187.16,-103.73C193.5,-95.15 200.21,-86.09 206.59,-77.46"/>
<polygon fill="black" stroke="black" points="209.33,-79.64 212.47,-69.52 203.71,-75.47 209.33,-79.64"/>
</g>
</g>
</svg>
