<?xml version="1.0" encoding="UTF-8" standalone="no"?>
<!DOCTYPE svg PUBLIC "-//W3C//DTD SVG 1.1//EN"
 "http://www.w3.org/Graphics/SVG/1.1/DTD/svg11.dtd">
<!-- Generated by graphviz version 12.1.1 (20240910.0053)
 -->
<!-- Title: Tree Pages: 1 -->
<svg width="848pt" height="671pt"
 viewBox="0.00 0.00 847.50 671.00" xmlns="http://www.w3.org/2000/svg" xmlns:xlink="http://www.w3.org/1999/xlink">
<g id="graph0" class="graph" transform="scale(1 1) rotate(0) translate(4 667)">
<title>Tree</title>
<polygon fill="white" stroke="none" points="-4,4 -4,-667 843.5,-667 843.5,4 -4,4"/>
<!-- 0 -->
<g id="node1" class="node">
<title>0</title>
<path fill="#f9e0ce" stroke="black" d="M554.5,-663C554.5,-663 409.5,-663 409.5,-663 403.5,-663 397.5,-657 397.5,-651 397.5,-651 397.5,-592 397.5,-592 397.5,-586 403.5,-580 409.5,-580 409.5,-580 554.5,-580 554.5,-580 560.5,-580 566.5,-586 566.5,-592 566.5,-592 566.5,-651 566.5,-651 566.5,-657 560.5,-663 554.5,-663"/>
<text text-anchor="start" x="426.88" y="-645.7" font-family="Helvetica,sans-Serif" font-size="14.00">COUGHING ≤ 1.5</text>
<text text-anchor="start" x="450.5" y="-630.7" font-family="Helvetica,sans-Serif" font-size="14.00">gini = 0.49</text>
<text text-anchor="start" x="437.38" y="-615.7" font-family="Helvetica,sans-Serif" font-size="14.00">samples = 120</text>
<text text-anchor="start" x="405.5" y="-600.7" font-family="Helvetica,sans-Serif" font-size="14.00">value = [122.481, 92.455]</text>
<text text-anchor="start" x="455" y="-585.7" font-family="Helvetica,sans-Serif" font-size="14.00">class = 0</text>
</g>
<!-- 1 -->
<g id="node2" class="node">
<title>1</title>
<path fill="#eeae80" stroke="black" d="M458.5,-544C458.5,-544 313.5,-544 313.5,-544 307.5,-544 301.5,-538 301.5,-532 301.5,-532 301.5,-473 301.5,-473 301.5,-467 307.5,-461 313.5,-461 313.5,-461 458.5,-461 458.5,-461 464.5,-461 470.5,-467 470.5,-473 470.5,-473 470.5,-532 470.5,-532 470.5,-538 464.5,-544 458.5,-544"/>
<text text-anchor="start" x="332" y="-526.7" font-family="Helvetica,sans-Serif" font-size="14.00">WHEEZING ≤ 1.5</text>
<text text-anchor="start" x="350.75" y="-511.7" font-family="Helvetica,sans-Serif" font-size="14.00">gini = 0.388</text>
<text text-anchor="start" x="345.12" y="-496.7" font-family="Helvetica,sans-Serif" font-size="14.00">samples = 54</text>
<text text-anchor="start" x="309.5" y="-481.7" font-family="Helvetica,sans-Serif" font-size="14.00">value = [100.212, 35.826]</text>
<text text-anchor="start" x="359" y="-466.7" font-family="Helvetica,sans-Serif" font-size="14.00">class = 0</text>
</g>
<!-- 0&#45;&gt;1 -->
<g id="edge1" class="edge">
<title>0&#45;&gt;1</title>
<path fill="none" stroke="black" d="M448.42,-579.58C441.37,-570.98 433.85,-561.82 426.57,-552.95"/>
<polygon fill="black" stroke="black" points="429.4,-550.88 420.36,-545.37 423.99,-555.32 429.4,-550.88"/>
<text text-anchor="middle" x="416.94" y="-563.28" font-family="Helvetica,sans-Serif" font-size="14.00">True</text>
</g>
<!-- 2 -->
<g id="node11" class="node">
<title>2</title>
<path fill="#87c4ef" stroke="black" d="M646.75,-544C646.75,-544 509.25,-544 509.25,-544 503.25,-544 497.25,-538 497.25,-532 497.25,-532 497.25,-473 497.25,-473 497.25,-467 503.25,-461 509.25,-461 509.25,-461 646.75,-461 646.75,-461 652.75,-461 658.75,-467 658.75,-473 658.75,-473 658.75,-532 658.75,-532 658.75,-538 652.75,-544 646.75,-544"/>
<text text-anchor="start" x="531.88" y="-526.7" font-family="Helvetica,sans-Serif" font-size="14.00">FATIGUE ≤ 1.5</text>
<text text-anchor="start" x="542.75" y="-511.7" font-family="Helvetica,sans-Serif" font-size="14.00">gini = 0.405</text>
<text text-anchor="start" x="537.12" y="-496.7" font-family="Helvetica,sans-Serif" font-size="14.00">samples = 66</text>
<text text-anchor="start" x="505.25" y="-481.7" font-family="Helvetica,sans-Serif" font-size="14.00">value = [22.269, 56.629]</text>
<text text-anchor="start" x="551" y="-466.7" font-family="Helvetica,sans-Serif" font-size="14.00">class = 1</text>
</g>
<!-- 0&#45;&gt;2 -->
<g id="edge10" class="edge">
<title>0&#45;&gt;2</title>
<path fill="none" stroke="black" d="M515.58,-579.58C522.63,-570.98 530.15,-561.82 537.43,-552.95"/>
<polygon fill="black" stroke="black" points="540.01,-555.32 543.64,-545.37 534.6,-550.88 540.01,-555.32"/>
<text text-anchor="middle" x="547.06" y="-563.28" font-family="Helvetica,sans-Serif" font-size="14.00">False</text>
</g>
<!-- 5 -->
<g id="node3" class="node">
<title>5</title>
<path fill="#ea9b62" stroke="black" d="M286.5,-425C286.5,-425 141.5,-425 141.5,-425 135.5,-425 129.5,-419 129.5,-413 129.5,-413 129.5,-354 129.5,-354 129.5,-348 135.5,-342 141.5,-342 141.5,-342 286.5,-342 286.5,-342 292.5,-342 298.5,-348 298.5,-354 298.5,-354 298.5,-413 298.5,-413 298.5,-419 292.5,-425 286.5,-425"/>
<text text-anchor="start" x="168.25" y="-407.7" font-family="Helvetica,sans-Serif" font-size="14.00">ANXIETY ≤ 1.5</text>
<text text-anchor="start" x="178.75" y="-392.7" font-family="Helvetica,sans-Serif" font-size="14.00">gini = 0.285</text>
<text text-anchor="start" x="173.12" y="-377.7" font-family="Helvetica,sans-Serif" font-size="14.00">samples = 36</text>
<text text-anchor="start" x="137.5" y="-362.7" font-family="Helvetica,sans-Serif" font-size="14.00">value = [100.212, 20.802]</text>
<text text-anchor="start" x="187" y="-347.7" font-family="Helvetica,sans-Serif" font-size="14.00">class = 0</text>
</g>
<!-- 1&#45;&gt;5 -->
<g id="edge2" class="edge">
<title>1&#45;&gt;5</title>
<path fill="none" stroke="black" d="M325.84,-460.58C312.09,-451.23 297.38,-441.21 283.28,-431.63"/>
<polygon fill="black" stroke="black" points="285.61,-428.98 275.37,-426.25 281.67,-434.77 285.61,-428.98"/>
</g>
<!-- 6 -->
<g id="node10" class="node">
<title>6</title>
<path fill="#399de5" stroke="black" d="M443.5,-417.5C443.5,-417.5 328.5,-417.5 328.5,-417.5 322.5,-417.5 316.5,-411.5 316.5,-405.5 316.5,-405.5 316.5,-361.5 316.5,-361.5 316.5,-355.5 322.5,-349.5 328.5,-349.5 328.5,-349.5 443.5,-349.5 443.5,-349.5 449.5,-349.5 455.5,-355.5 455.5,-361.5 455.5,-361.5 455.5,-405.5 455.5,-405.5 455.5,-411.5 449.5,-417.5 443.5,-417.5"/>
<text text-anchor="start" x="358.25" y="-400.2" font-family="Helvetica,sans-Serif" font-size="14.00">gini = 0.0</text>
<text text-anchor="start" x="345.12" y="-385.2" font-family="Helvetica,sans-Serif" font-size="14.00">samples = 18</text>
<text text-anchor="start" x="324.5" y="-370.2" font-family="Helvetica,sans-Serif" font-size="14.00">value = [0.0, 15.024]</text>
<text text-anchor="start" x="359" y="-355.2" font-family="Helvetica,sans-Serif" font-size="14.00">class = 1</text>
</g>
<!-- 1&#45;&gt;6 -->
<g id="edge9" class="edge">
<title>1&#45;&gt;6</title>
<path fill="none" stroke="black" d="M386,-460.58C386,-450.43 386,-439.5 386,-429.18"/>
<polygon fill="black" stroke="black" points="389.5,-429.37 386,-419.37 382.5,-429.37 389.5,-429.37"/>
</g>
<!-- 9 -->
<g id="node4" class="node">
<title>9</title>
<path fill="#e6853f" stroke="black" d="M205,-298.5C205,-298.5 75,-298.5 75,-298.5 69,-298.5 63,-292.5 63,-286.5 63,-286.5 63,-242.5 63,-242.5 63,-236.5 69,-230.5 75,-230.5 75,-230.5 205,-230.5 205,-230.5 211,-230.5 217,-236.5 217,-242.5 217,-242.5 217,-286.5 217,-286.5 217,-292.5 211,-298.5 205,-298.5"/>
<text text-anchor="start" x="104.75" y="-281.2" font-family="Helvetica,sans-Serif" font-size="14.00">gini = 0.055</text>
<text text-anchor="start" x="102.88" y="-266.2" font-family="Helvetica,sans-Serif" font-size="14.00">samples = 8</text>
<text text-anchor="start" x="71" y="-251.2" font-family="Helvetica,sans-Serif" font-size="14.00">value = [59.385, 1.734]</text>
<text text-anchor="start" x="113" y="-236.2" font-family="Helvetica,sans-Serif" font-size="14.00">class = 0</text>
</g>
<!-- 5&#45;&gt;9 -->
<g id="edge3" class="edge">
<title>5&#45;&gt;9</title>
<path fill="none" stroke="black" d="M188.12,-341.58C181.35,-330.88 174.04,-319.32 167.21,-308.52"/>
<polygon fill="black" stroke="black" points="170.21,-306.72 161.91,-300.14 164.3,-310.46 170.21,-306.72"/>
</g>
<!-- 10 -->
<g id="node5" class="node">
<title>10</title>
<path fill="#f1bc95" stroke="black" d="M384.75,-306C384.75,-306 247.25,-306 247.25,-306 241.25,-306 235.25,-300 235.25,-294 235.25,-294 235.25,-235 235.25,-235 235.25,-229 241.25,-223 247.25,-223 247.25,-223 384.75,-223 384.75,-223 390.75,-223 396.75,-229 396.75,-235 396.75,-235 396.75,-294 396.75,-294 396.75,-300 390.75,-306 384.75,-306"/>
<text text-anchor="start" x="256.75" y="-288.7" font-family="Helvetica,sans-Serif" font-size="14.00">CHEST_PAIN ≤ 1.5</text>
<text text-anchor="start" x="280.75" y="-273.7" font-family="Helvetica,sans-Serif" font-size="14.00">gini = 0.434</text>
<text text-anchor="start" x="275.12" y="-258.7" font-family="Helvetica,sans-Serif" font-size="14.00">samples = 28</text>
<text text-anchor="start" x="243.25" y="-243.7" font-family="Helvetica,sans-Serif" font-size="14.00">value = [40.827, 19.069]</text>
<text text-anchor="start" x="289" y="-228.7" font-family="Helvetica,sans-Serif" font-size="14.00">class = 0</text>
</g>
<!-- 5&#45;&gt;10 -->
<g id="edge4" class="edge">
<title>5&#45;&gt;10</title>
<path fill="none" stroke="black" d="M249.67,-341.58C257.25,-332.89 265.32,-323.63 273.13,-314.67"/>
<polygon fill="black" stroke="black" points="275.59,-317.18 279.52,-307.34 270.31,-312.58 275.59,-317.18"/>
</g>
<!-- 11 -->
<g id="node6" class="node">
<title>11</title>
<path fill="#ea9b61" stroke="black" d="M233.12,-187C233.12,-187 88.88,-187 88.88,-187 82.88,-187 76.88,-181 76.88,-175 76.88,-175 76.88,-116 76.88,-116 76.88,-110 82.88,-104 88.88,-104 88.88,-104 233.12,-104 233.12,-104 239.12,-104 245.12,-110 245.12,-116 245.12,-116 245.12,-175 245.12,-175 245.12,-181 239.12,-187 233.12,-187"/>
<text text-anchor="start" x="84.88" y="-169.7" font-family="Helvetica,sans-Serif" font-size="14.00">PEER_PRESSURE ≤ 1.5</text>
<text text-anchor="start" x="129.5" y="-154.7" font-family="Helvetica,sans-Serif" font-size="14.00">gini = 0.28</text>
<text text-anchor="start" x="120.12" y="-139.7" font-family="Helvetica,sans-Serif" font-size="14.00">samples = 14</text>
<text text-anchor="start" x="92" y="-124.7" font-family="Helvetica,sans-Serif" font-size="14.00">value = [37.115, 7.512]</text>
<text text-anchor="start" x="134" y="-109.7" font-family="Helvetica,sans-Serif" font-size="14.00">class = 0</text>
</g>
<!-- 10&#45;&gt;11 -->
<g id="edge5" class="edge">
<title>10&#45;&gt;11</title>
<path fill="none" stroke="black" d="M261.79,-222.58C249.64,-213.41 236.64,-203.6 224.16,-194.17"/>
<polygon fill="black" stroke="black" points="226.48,-191.54 216.39,-188.31 222.26,-197.13 226.48,-191.54"/>
</g>
<!-- 12 -->
<g id="node9" class="node">
<title>12</title>
<path fill="#79bced" stroke="black" d="M405,-179.5C405,-179.5 275,-179.5 275,-179.5 269,-179.5 263,-173.5 263,-167.5 263,-167.5 263,-123.5 263,-123.5 263,-117.5 269,-111.5 275,-111.5 275,-111.5 405,-111.5 405,-111.5 411,-111.5 417,-117.5 417,-123.5 417,-123.5 417,-167.5 417,-167.5 417,-173.5 411,-179.5 405,-179.5"/>
<text text-anchor="start" x="304.75" y="-162.2" font-family="Helvetica,sans-Serif" font-size="14.00">gini = 0.368</text>
<text text-anchor="start" x="299.12" y="-147.2" font-family="Helvetica,sans-Serif" font-size="14.00">samples = 14</text>
<text text-anchor="start" x="271" y="-132.2" font-family="Helvetica,sans-Serif" font-size="14.00">value = [3.712, 11.557]</text>
<text text-anchor="start" x="313" y="-117.2" font-family="Helvetica,sans-Serif" font-size="14.00">class = 1</text>
</g>
<!-- 10&#45;&gt;12 -->
<g id="edge8" class="edge">
<title>10&#45;&gt;12</title>
<path fill="none" stroke="black" d="M324.39,-222.58C326.5,-212.32 328.77,-201.27 330.9,-190.85"/>
<polygon fill="black" stroke="black" points="334.27,-191.84 332.85,-181.34 327.41,-190.44 334.27,-191.84"/>
</g>
<!-- 13 -->
<g id="node7" class="node">
<title>13</title>
<path fill="#e5833c" stroke="black" d="M142,-68C142,-68 12,-68 12,-68 6,-68 0,-62 0,-56 0,-56 0,-12 0,-12 0,-6 6,0 12,0 12,0 142,0 142,0 148,0 154,-6 154,-12 154,-12 154,-56 154,-56 154,-62 148,-68 142,-68"/>
<text text-anchor="start" x="41.75" y="-50.7" font-family="Helvetica,sans-Serif" font-size="14.00">gini = 0.033</text>
<text text-anchor="start" x="39.88" y="-35.7" font-family="Helvetica,sans-Serif" font-size="14.00">samples = 4</text>
<text text-anchor="start" x="8" y="-20.7" font-family="Helvetica,sans-Serif" font-size="14.00">value = [33.404, 0.578]</text>
<text text-anchor="start" x="50" y="-5.7" font-family="Helvetica,sans-Serif" font-size="14.00">class = 0</text>
</g>
<!-- 11&#45;&gt;13 -->
<g id="edge6" class="edge">
<title>11&#45;&gt;13</title>
<path fill="none" stroke="black" d="M129.72,-103.73C123.07,-95.06 116.04,-85.9 109.36,-77.18"/>
<polygon fill="black" stroke="black" points="112.33,-75.3 103.47,-69.5 106.78,-79.57 112.33,-75.3"/>
</g>
<!-- 14 -->
<g id="node8" class="node">
<title>14</title>
<path fill="#a3d1f3" stroke="black" d="M306.25,-68C306.25,-68 183.75,-68 183.75,-68 177.75,-68 171.75,-62 171.75,-56 171.75,-56 171.75,-12 171.75,-12 171.75,-6 177.75,0 183.75,0 183.75,0 306.25,0 306.25,0 312.25,0 318.25,-6 318.25,-12 318.25,-12 318.25,-56 318.25,-56 318.25,-62 312.25,-68 306.25,-68"/>
<text text-anchor="start" x="209.75" y="-50.7" font-family="Helvetica,sans-Serif" font-size="14.00">gini = 0.454</text>
<text text-anchor="start" x="204.12" y="-35.7" font-family="Helvetica,sans-Serif" font-size="14.00">samples = 10</text>
<text text-anchor="start" x="179.75" y="-20.7" font-family="Helvetica,sans-Serif" font-size="14.00">value = [3.712, 6.934]</text>
<text text-anchor="start" x="218" y="-5.7" font-family="Helvetica,sans-Serif" font-size="14.00">class = 1</text>
</g>
<!-- 11&#45;&gt;14 -->
<g id="edge7" class="edge">
<title>11&#45;&gt;14</title>
<path fill="none" stroke="black" d="M192.28,-103.73C198.93,-95.06 205.96,-85.9 212.64,-77.18"/>
<polygon fill="black" stroke="black" points="215.22,-79.57 218.53,-69.5 209.67,-75.3 215.22,-79.57"/>
</g>
<!-- 3 -->
<g id="node12" class="node">
<title>3</title>
<path fill="#f0b990" stroke="black" d="M670.75,-425C670.75,-425 485.25,-425 485.25,-425 479.25,-425 473.25,-419 473.25,-413 473.25,-413 473.25,-354 473.25,-354 473.25,-348 479.25,-342 485.25,-342 485.25,-342 670.75,-342 670.75,-342 676.75,-342 682.75,-348 682.75,-354 682.75,-354 682.75,-413 682.75,-413 682.75,-419 676.75,-425 670.75,-425"/>
<text text-anchor="start" x="481.25" y="-407.7" font-family="Helvetica,sans-Serif" font-size="14.00">ALCOHOL_CONSUMING ≤ 1.5</text>
<text text-anchor="start" x="542.75" y="-392.7" font-family="Helvetica,sans-Serif" font-size="14.00">gini = 0.425</text>
<text text-anchor="start" x="537.12" y="-377.7" font-family="Helvetica,sans-Serif" font-size="14.00">samples = 15</text>
<text text-anchor="start" x="509" y="-362.7" font-family="Helvetica,sans-Serif" font-size="14.00">value = [22.269, 9.823]</text>
<text text-anchor="start" x="551" y="-347.7" font-family="Helvetica,sans-Serif" font-size="14.00">class = 0</text>
</g>
<!-- 2&#45;&gt;3 -->
<g id="edge11" class="edge">
<title>2&#45;&gt;3</title>
<path fill="none" stroke="black" d="M578,-460.58C578,-452.79 578,-444.53 578,-436.45"/>
<polygon fill="black" stroke="black" points="581.5,-436.71 578,-426.71 574.5,-436.71 581.5,-436.71"/>
</g>
<!-- 4 -->
<g id="node17" class="node">
<title>4</title>
<path fill="#399de5" stroke="black" d="M827.5,-417.5C827.5,-417.5 712.5,-417.5 712.5,-417.5 706.5,-417.5 700.5,-411.5 700.5,-405.5 700.5,-405.5 700.5,-361.5 700.5,-361.5 700.5,-355.5 706.5,-349.5 712.5,-349.5 712.5,-349.5 827.5,-349.5 827.5,-349.5 833.5,-349.5 839.5,-355.5 839.5,-361.5 839.5,-361.5 839.5,-405.5 839.5,-405.5 839.5,-411.5 833.5,-417.5 827.5,-417.5"/>
<text text-anchor="start" x="742.25" y="-400.2" font-family="Helvetica,sans-Serif" font-size="14.00">gini = 0.0</text>
<text text-anchor="start" x="729.12" y="-385.2" font-family="Helvetica,sans-Serif" font-size="14.00">samples = 51</text>
<text text-anchor="start" x="708.5" y="-370.2" font-family="Helvetica,sans-Serif" font-size="14.00">value = [0.0, 46.805]</text>
<text text-anchor="start" x="743" y="-355.2" font-family="Helvetica,sans-Serif" font-size="14.00">class = 1</text>
</g>
<!-- 2&#45;&gt;4 -->
<g id="edge16" class="edge">
<title>2&#45;&gt;4</title>
<path fill="none" stroke="black" d="M645.15,-460.58C664.76,-448.63 686.15,-435.6 705.59,-423.75"/>
<polygon fill="black" stroke="black" points="707.24,-426.84 713.96,-418.65 703.6,-420.86 707.24,-426.84"/>
</g>
<!-- 7 -->
<g id="node13" class="node">
<title>7</title>
<path fill="#e68843" stroke="black" d="M600,-306C600,-306 470,-306 470,-306 464,-306 458,-300 458,-294 458,-294 458,-235 458,-235 458,-229 464,-223 470,-223 470,-223 600,-223 600,-223 606,-223 612,-229 612,-235 612,-235 612,-294 612,-294 612,-300 606,-306 600,-306"/>
<text text-anchor="start" x="481" y="-288.7" font-family="Helvetica,sans-Serif" font-size="14.00">WHEEZING ≤ 1.5</text>
<text text-anchor="start" x="499.75" y="-273.7" font-family="Helvetica,sans-Serif" font-size="14.00">gini = 0.094</text>
<text text-anchor="start" x="497.88" y="-258.7" font-family="Helvetica,sans-Serif" font-size="14.00">samples = 4</text>
<text text-anchor="start" x="466" y="-243.7" font-family="Helvetica,sans-Serif" font-size="14.00">value = [22.269, 1.156]</text>
<text text-anchor="start" x="508" y="-228.7" font-family="Helvetica,sans-Serif" font-size="14.00">class = 0</text>
</g>
<!-- 3&#45;&gt;7 -->
<g id="edge12" class="edge">
<title>3&#45;&gt;7</title>
<path fill="none" stroke="black" d="M562.96,-341.58C560.03,-333.61 556.92,-325.15 553.89,-316.89"/>
<polygon fill="black" stroke="black" points="557.22,-315.8 550.48,-307.62 550.64,-318.21 557.22,-315.8"/>
</g>
<!-- 8 -->
<g id="node16" class="node">
<title>8</title>
<path fill="#399de5" stroke="black" d="M749.75,-298.5C749.75,-298.5 642.25,-298.5 642.25,-298.5 636.25,-298.5 630.25,-292.5 630.25,-286.5 630.25,-286.5 630.25,-242.5 630.25,-242.5 630.25,-236.5 636.25,-230.5 642.25,-230.5 642.25,-230.5 749.75,-230.5 749.75,-230.5 755.75,-230.5 761.75,-236.5 761.75,-242.5 761.75,-242.5 761.75,-286.5 761.75,-286.5 761.75,-292.5 755.75,-298.5 749.75,-298.5"/>
<text text-anchor="start" x="666" y="-281.2" font-family="Helvetica,sans-Serif" font-size="14.00">gini = &#45;0.0</text>
<text text-anchor="start" x="655.12" y="-266.2" font-family="Helvetica,sans-Serif" font-size="14.00">samples = 11</text>
<text text-anchor="start" x="638.25" y="-251.2" font-family="Helvetica,sans-Serif" font-size="14.00">value = [0.0, 8.668]</text>
<text text-anchor="start" x="669" y="-236.2" font-family="Helvetica,sans-Serif" font-size="14.00">class = 1</text>
</g>
<!-- 3&#45;&gt;8 -->
<g id="edge15" class="edge">
<title>3&#45;&gt;8</title>
<path fill="none" stroke="black" d="M619.27,-341.58C630.61,-330.34 642.91,-318.14 654.27,-306.87"/>
<polygon fill="black" stroke="black" points="656.64,-309.45 661.28,-299.93 651.71,-304.48 656.64,-309.45"/>
</g>
<!-- 15 -->
<g id="node14" class="node">
<title>15</title>
<path fill="#e58139" stroke="black" d="M567.5,-179.5C567.5,-179.5 452.5,-179.5 452.5,-179.5 446.5,-179.5 440.5,-173.5 440.5,-167.5 440.5,-167.5 440.5,-123.5 440.5,-123.5 440.5,-117.5 446.5,-111.5 452.5,-111.5 452.5,-111.5 567.5,-111.5 567.5,-111.5 573.5,-111.5 579.5,-117.5 579.5,-123.5 579.5,-123.5 579.5,-167.5 579.5,-167.5 579.5,-173.5 573.5,-179.5 567.5,-179.5"/>
<text text-anchor="start" x="482.25" y="-162.2" font-family="Helvetica,sans-Serif" font-size="14.00">gini = 0.0</text>
<text text-anchor="start" x="472.88" y="-147.2" font-family="Helvetica,sans-Serif" font-size="14.00">samples = 3</text>
<text text-anchor="start" x="448.5" y="-132.2" font-family="Helvetica,sans-Serif" font-size="14.00">value = [22.269, 0.0]</text>
<text text-anchor="start" x="483" y="-117.2" font-family="Helvetica,sans-Serif" font-size="14.00">class = 0</text>
</g>
<!-- 7&#45;&gt;15 -->
<g id="edge13" class="edge">
<title>7&#45;&gt;15</title>
<path fill="none" stroke="black" d="M526.26,-222.58C524.06,-212.32 521.7,-201.27 519.48,-190.85"/>
<polygon fill="black" stroke="black" points="522.96,-190.39 517.44,-181.34 516.11,-191.85 522.96,-190.39"/>
</g>
<!-- 16 -->
<g id="node15" class="node">
<title>16</title>
<path fill="#399de5" stroke="black" d="M716.75,-179.5C716.75,-179.5 609.25,-179.5 609.25,-179.5 603.25,-179.5 597.25,-173.5 597.25,-167.5 597.25,-167.5 597.25,-123.5 597.25,-123.5 597.25,-117.5 603.25,-111.5 609.25,-111.5 609.25,-111.5 716.75,-111.5 716.75,-111.5 722.75,-111.5 728.75,-117.5 728.75,-123.5 728.75,-123.5 728.75,-167.5 728.75,-167.5 728.75,-173.5 722.75,-179.5 716.75,-179.5"/>
<text text-anchor="start" x="633" y="-162.2" font-family="Helvetica,sans-Serif" font-size="14.00">gini = &#45;0.0</text>
<text text-anchor="start" x="625.88" y="-147.2" font-family="Helvetica,sans-Serif" font-size="14.00">samples = 1</text>
<text text-anchor="start" x="605.25" y="-132.2" font-family="Helvetica,sans-Serif" font-size="14.00">value = [0.0, 1.156]</text>
<text text-anchor="start" x="636" y="-117.2" font-family="Helvetica,sans-Serif" font-size="14.00">class = 1</text>
</g>
<!-- 7&#45;&gt;16 -->
<g id="edge14" class="edge">
<title>7&#45;&gt;16</title>
<path fill="none" stroke="black" d="M579.77,-222.58C592.19,-211.23 605.67,-198.9 618.09,-187.55"/>
<polygon fill="black" stroke="black" points="620.37,-190.21 625.39,-180.88 615.64,-185.05 620.37,-190.21"/>
</g>
</g>
</svg>
