<?xml version="1.0" encoding="UTF-8" standalone="no"?>
<!DOCTYPE svg PUBLIC "-//W3C//DTD SVG 1.1//EN"
 "http://www.w3.org/Graphics/SVG/1.1/DTD/svg11.dtd">
<!-- Generated by graphviz version 12.1.1 (20240910.0053)
 -->
<!-- Title: Tree Pages: 1 -->
<svg width="783pt" height="671pt"
 viewBox="0.00 0.00 783.25 671.00" xmlns="http://www.w3.org/2000/svg" xmlns:xlink="http://www.w3.org/1999/xlink">
<g id="graph0" class="graph" transform="scale(1 1) rotate(0) translate(4 667)">
<title>Tree</title>
<polygon fill="white" stroke="none" points="-4,4 -4,-667 779.25,-667 779.25,4 -4,4"/>
<!-- 0 -->
<g id="node1" class="node">
<title>0</title>
<path fill="#fbece0" stroke="black" d="M547,-663C547,-663 340.5,-663 340.5,-663 334.5,-663 328.5,-657 328.5,-651 328.5,-651 328.5,-592 328.5,-592 328.5,-586 334.5,-580 340.5,-580 340.5,-580 547,-580 547,-580 553,-580 559,-586 559,-592 559,-592 559,-651 559,-651 559,-657 553,-663 547,-663"/>
<text text-anchor="start" x="336.5" y="-645.7" font-family="Helvetica,sans-Serif" font-size="14.00">SWALLOWING_DIFFICULTY ≤ 1.5</text>
<text text-anchor="start" x="408.5" y="-630.7" font-family="Helvetica,sans-Serif" font-size="14.00">gini = 0.497</text>
<text text-anchor="start" x="399.12" y="-615.7" font-family="Helvetica,sans-Serif" font-size="14.00">samples = 125</text>
<text text-anchor="start" x="367.62" y="-600.7" font-family="Helvetica,sans-Serif" font-size="14.00">value = [111.346, 94.189]</text>
<text text-anchor="start" x="416.75" y="-585.7" font-family="Helvetica,sans-Serif" font-size="14.00">class = 0</text>
</g>
<!-- 1 -->
<g id="node2" class="node">
<title>1</title>
<path fill="#f2c2a0" stroke="black" d="M423.5,-544C423.5,-544 286,-544 286,-544 280,-544 274,-538 274,-532 274,-532 274,-473 274,-473 274,-467 280,-461 286,-461 286,-461 423.5,-461 423.5,-461 429.5,-461 435.5,-467 435.5,-473 435.5,-473 435.5,-532 435.5,-532 435.5,-538 429.5,-544 423.5,-544"/>
<text text-anchor="start" x="300.75" y="-526.7" font-family="Helvetica,sans-Serif" font-size="14.00">WHEEZING ≤ 1.5</text>
<text text-anchor="start" x="323.25" y="-511.7" font-family="Helvetica,sans-Serif" font-size="14.00">gini = 0.45</text>
<text text-anchor="start" x="313.88" y="-496.7" font-family="Helvetica,sans-Serif" font-size="14.00">samples = 63</text>
<text text-anchor="start" x="282" y="-481.7" font-family="Helvetica,sans-Serif" font-size="14.00">value = [77.942, 40.449]</text>
<text text-anchor="start" x="327.75" y="-466.7" font-family="Helvetica,sans-Serif" font-size="14.00">class = 0</text>
</g>
<!-- 0&#45;&gt;1 -->
<g id="edge1" class="edge">
<title>0&#45;&gt;1</title>
<path fill="none" stroke="black" d="M412.62,-579.58C406.15,-571.07 399.26,-562.01 392.58,-553.23"/>
<polygon fill="black" stroke="black" points="395.47,-551.24 386.63,-545.4 389.9,-555.48 395.47,-551.24"/>
<text text-anchor="middle" x="382.34" y="-563.17" font-family="Helvetica,sans-Serif" font-size="14.00">True</text>
</g>
<!-- 2 -->
<g id="node11" class="node">
<title>2</title>
<path fill="#b4daf5" stroke="black" d="M598.75,-544C598.75,-544 468.75,-544 468.75,-544 462.75,-544 456.75,-538 456.75,-532 456.75,-532 456.75,-473 456.75,-473 456.75,-467 462.75,-461 468.75,-461 468.75,-461 598.75,-461 598.75,-461 604.75,-461 610.75,-467 610.75,-473 610.75,-473 610.75,-532 610.75,-532 610.75,-538 604.75,-544 598.75,-544"/>
<text text-anchor="start" x="485.38" y="-526.7" font-family="Helvetica,sans-Serif" font-size="14.00">ALLERGY ≤ 1.5</text>
<text text-anchor="start" x="498.5" y="-511.7" font-family="Helvetica,sans-Serif" font-size="14.00">gini = 0.473</text>
<text text-anchor="start" x="492.88" y="-496.7" font-family="Helvetica,sans-Serif" font-size="14.00">samples = 62</text>
<text text-anchor="start" x="464.75" y="-481.7" font-family="Helvetica,sans-Serif" font-size="14.00">value = [33.404, 53.74]</text>
<text text-anchor="start" x="506.75" y="-466.7" font-family="Helvetica,sans-Serif" font-size="14.00">class = 1</text>
</g>
<!-- 0&#45;&gt;2 -->
<g id="edge10" class="edge">
<title>0&#45;&gt;2</title>
<path fill="none" stroke="black" d="M475.23,-579.58C481.77,-571.07 488.74,-562.01 495.5,-553.23"/>
<polygon fill="black" stroke="black" points="498.2,-555.46 501.52,-545.4 492.65,-551.19 498.2,-555.46"/>
<text text-anchor="middle" x="505.68" y="-563.19" font-family="Helvetica,sans-Serif" font-size="14.00">False</text>
</g>
<!-- 3 -->
<g id="node3" class="node">
<title>3</title>
<path fill="#eb9e66" stroke="black" d="M247.75,-425C247.75,-425 117.75,-425 117.75,-425 111.75,-425 105.75,-419 105.75,-413 105.75,-413 105.75,-354 105.75,-354 105.75,-348 111.75,-342 117.75,-342 117.75,-342 247.75,-342 247.75,-342 253.75,-342 259.75,-348 259.75,-354 259.75,-354 259.75,-413 259.75,-413 259.75,-419 253.75,-425 247.75,-425"/>
<text text-anchor="start" x="134.38" y="-407.7" font-family="Helvetica,sans-Serif" font-size="14.00">ALLERGY ≤ 1.5</text>
<text text-anchor="start" x="147.5" y="-392.7" font-family="Helvetica,sans-Serif" font-size="14.00">gini = 0.304</text>
<text text-anchor="start" x="141.88" y="-377.7" font-family="Helvetica,sans-Serif" font-size="14.00">samples = 34</text>
<text text-anchor="start" x="113.75" y="-362.7" font-family="Helvetica,sans-Serif" font-size="14.00">value = [70.519, 16.18]</text>
<text text-anchor="start" x="155.75" y="-347.7" font-family="Helvetica,sans-Serif" font-size="14.00">class = 0</text>
</g>
<!-- 1&#45;&gt;3 -->
<g id="edge2" class="edge">
<title>1&#45;&gt;3</title>
<path fill="none" stroke="black" d="M294.59,-460.58C280.84,-451.23 266.13,-441.21 252.03,-431.63"/>
<polygon fill="black" stroke="black" points="254.36,-428.98 244.12,-426.25 250.42,-434.77 254.36,-428.98"/>
</g>
<!-- 4 -->
<g id="node10" class="node">
<title>4</title>
<path fill="#76bbed" stroke="black" d="M419.75,-417.5C419.75,-417.5 289.75,-417.5 289.75,-417.5 283.75,-417.5 277.75,-411.5 277.75,-405.5 277.75,-405.5 277.75,-361.5 277.75,-361.5 277.75,-355.5 283.75,-349.5 289.75,-349.5 289.75,-349.5 419.75,-349.5 419.75,-349.5 425.75,-349.5 431.75,-355.5 431.75,-361.5 431.75,-361.5 431.75,-405.5 431.75,-405.5 431.75,-411.5 425.75,-417.5 419.75,-417.5"/>
<text text-anchor="start" x="319.5" y="-400.2" font-family="Helvetica,sans-Serif" font-size="14.00">gini = 0.359</text>
<text text-anchor="start" x="313.88" y="-385.2" font-family="Helvetica,sans-Serif" font-size="14.00">samples = 29</text>
<text text-anchor="start" x="285.75" y="-370.2" font-family="Helvetica,sans-Serif" font-size="14.00">value = [7.423, 24.269]</text>
<text text-anchor="start" x="327.75" y="-355.2" font-family="Helvetica,sans-Serif" font-size="14.00">class = 1</text>
</g>
<!-- 1&#45;&gt;4 -->
<g id="edge9" class="edge">
<title>1&#45;&gt;4</title>
<path fill="none" stroke="black" d="M354.75,-460.58C354.75,-450.43 354.75,-439.5 354.75,-429.18"/>
<polygon fill="black" stroke="black" points="358.25,-429.37 354.75,-419.37 351.25,-429.37 358.25,-429.37"/>
</g>
<!-- 9 -->
<g id="node4" class="node">
<title>9</title>
<path fill="#e78946" stroke="black" d="M172.75,-298.5C172.75,-298.5 42.75,-298.5 42.75,-298.5 36.75,-298.5 30.75,-292.5 30.75,-286.5 30.75,-286.5 30.75,-242.5 30.75,-242.5 30.75,-236.5 36.75,-230.5 42.75,-230.5 42.75,-230.5 172.75,-230.5 172.75,-230.5 178.75,-230.5 184.75,-236.5 184.75,-242.5 184.75,-242.5 184.75,-286.5 184.75,-286.5 184.75,-292.5 178.75,-298.5 172.75,-298.5"/>
<text text-anchor="start" x="72.5" y="-281.2" font-family="Helvetica,sans-Serif" font-size="14.00">gini = 0.113</text>
<text text-anchor="start" x="66.88" y="-266.2" font-family="Helvetica,sans-Serif" font-size="14.00">samples = 18</text>
<text text-anchor="start" x="38.75" y="-251.2" font-family="Helvetica,sans-Serif" font-size="14.00">value = [63.096, 4.045]</text>
<text text-anchor="start" x="80.75" y="-236.2" font-family="Helvetica,sans-Serif" font-size="14.00">class = 0</text>
</g>
<!-- 3&#45;&gt;9 -->
<g id="edge3" class="edge">
<title>3&#45;&gt;9</title>
<path fill="none" stroke="black" d="M156.52,-341.58C149.66,-330.88 142.25,-319.32 135.33,-308.52"/>
<polygon fill="black" stroke="black" points="138.3,-306.67 129.95,-300.14 132.4,-310.44 138.3,-306.67"/>
</g>
<!-- 10 -->
<g id="node5" class="node">
<title>10</title>
<path fill="#b2d9f5" stroke="black" d="M344.75,-306C344.75,-306 214.75,-306 214.75,-306 208.75,-306 202.75,-300 202.75,-294 202.75,-294 202.75,-235 202.75,-235 202.75,-229 208.75,-223 214.75,-223 214.75,-223 344.75,-223 344.75,-223 350.75,-223 356.75,-229 356.75,-235 356.75,-235 356.75,-294 356.75,-294 356.75,-300 350.75,-306 344.75,-306"/>
<text text-anchor="start" x="224.62" y="-288.7" font-family="Helvetica,sans-Serif" font-size="14.00">COUGHING ≤ 1.5</text>
<text text-anchor="start" x="244.5" y="-273.7" font-family="Helvetica,sans-Serif" font-size="14.00">gini = 0.471</text>
<text text-anchor="start" x="238.88" y="-258.7" font-family="Helvetica,sans-Serif" font-size="14.00">samples = 16</text>
<text text-anchor="start" x="210.75" y="-243.7" font-family="Helvetica,sans-Serif" font-size="14.00">value = [7.423, 12.135]</text>
<text text-anchor="start" x="252.75" y="-228.7" font-family="Helvetica,sans-Serif" font-size="14.00">class = 1</text>
</g>
<!-- 3&#45;&gt;10 -->
<g id="edge4" class="edge">
<title>3&#45;&gt;10</title>
<path fill="none" stroke="black" d="M216.68,-341.58C223.81,-332.98 231.4,-323.82 238.75,-314.95"/>
<polygon fill="black" stroke="black" points="241.35,-317.3 245.04,-307.37 235.96,-312.83 241.35,-317.3"/>
</g>
<!-- 13 -->
<g id="node6" class="node">
<title>13</title>
<path fill="#eb9e67" stroke="black" d="M202,-187C202,-187 79.5,-187 79.5,-187 73.5,-187 67.5,-181 67.5,-175 67.5,-175 67.5,-116 67.5,-116 67.5,-110 73.5,-104 79.5,-104 79.5,-104 202,-104 202,-104 208,-104 214,-110 214,-116 214,-116 214,-175 214,-175 214,-181 208,-187 202,-187"/>
<text text-anchor="start" x="105.5" y="-169.7" font-family="Helvetica,sans-Serif" font-size="14.00">AGE ≤ 38.5</text>
<text text-anchor="start" x="105.5" y="-154.7" font-family="Helvetica,sans-Serif" font-size="14.00">gini = 0.307</text>
<text text-anchor="start" x="103.62" y="-139.7" font-family="Helvetica,sans-Serif" font-size="14.00">samples = 3</text>
<text text-anchor="start" x="75.5" y="-124.7" font-family="Helvetica,sans-Serif" font-size="14.00">value = [7.423, 1.734]</text>
<text text-anchor="start" x="113.75" y="-109.7" font-family="Helvetica,sans-Serif" font-size="14.00">class = 0</text>
</g>
<!-- 10&#45;&gt;13 -->
<g id="edge5" class="edge">
<title>10&#45;&gt;13</title>
<path fill="none" stroke="black" d="M231.13,-222.58C220.39,-213.53 208.9,-203.87 197.85,-194.56"/>
<polygon fill="black" stroke="black" points="200.17,-191.94 190.26,-188.17 195.66,-197.29 200.17,-191.94"/>
</g>
<!-- 14 -->
<g id="node9" class="node">
<title>14</title>
<path fill="#399de5" stroke="black" d="M359.25,-179.5C359.25,-179.5 244.25,-179.5 244.25,-179.5 238.25,-179.5 232.25,-173.5 232.25,-167.5 232.25,-167.5 232.25,-123.5 232.25,-123.5 232.25,-117.5 238.25,-111.5 244.25,-111.5 244.25,-111.5 359.25,-111.5 359.25,-111.5 365.25,-111.5 371.25,-117.5 371.25,-123.5 371.25,-123.5 371.25,-167.5 371.25,-167.5 371.25,-173.5 365.25,-179.5 359.25,-179.5"/>
<text text-anchor="start" x="274" y="-162.2" font-family="Helvetica,sans-Serif" font-size="14.00">gini = 0.0</text>
<text text-anchor="start" x="260.88" y="-147.2" font-family="Helvetica,sans-Serif" font-size="14.00">samples = 13</text>
<text text-anchor="start" x="240.25" y="-132.2" font-family="Helvetica,sans-Serif" font-size="14.00">value = [0.0, 10.401]</text>
<text text-anchor="start" x="274.75" y="-117.2" font-family="Helvetica,sans-Serif" font-size="14.00">class = 1</text>
</g>
<!-- 10&#45;&gt;14 -->
<g id="edge8" class="edge">
<title>10&#45;&gt;14</title>
<path fill="none" stroke="black" d="M287.44,-222.58C289.37,-212.32 291.45,-201.27 293.41,-190.85"/>
<polygon fill="black" stroke="black" points="296.79,-191.82 295.2,-181.35 289.91,-190.53 296.79,-191.82"/>
</g>
<!-- 15 -->
<g id="node7" class="node">
<title>15</title>
<path fill="#e58139" stroke="black" d="M119.5,-68C119.5,-68 12,-68 12,-68 6,-68 0,-62 0,-56 0,-56 0,-12 0,-12 0,-6 6,0 12,0 12,0 119.5,0 119.5,0 125.5,0 131.5,-6 131.5,-12 131.5,-12 131.5,-56 131.5,-56 131.5,-62 125.5,-68 119.5,-68"/>
<text text-anchor="start" x="38" y="-50.7" font-family="Helvetica,sans-Serif" font-size="14.00">gini = 0.0</text>
<text text-anchor="start" x="28.62" y="-35.7" font-family="Helvetica,sans-Serif" font-size="14.00">samples = 1</text>
<text text-anchor="start" x="8" y="-20.7" font-family="Helvetica,sans-Serif" font-size="14.00">value = [7.423, 0.0]</text>
<text text-anchor="start" x="38.75" y="-5.7" font-family="Helvetica,sans-Serif" font-size="14.00">class = 0</text>
</g>
<!-- 13&#45;&gt;15 -->
<g id="edge6" class="edge">
<title>13&#45;&gt;15</title>
<path fill="none" stroke="black" d="M112.82,-103.73C107.01,-95.24 100.87,-86.28 95.02,-77.73"/>
<polygon fill="black" stroke="black" points="97.95,-75.82 89.41,-69.55 92.18,-79.78 97.95,-75.82"/>
</g>
<!-- 16 -->
<g id="node8" class="node">
<title>16</title>
<path fill="#399de5" stroke="black" d="M269.5,-68C269.5,-68 162,-68 162,-68 156,-68 150,-62 150,-56 150,-56 150,-12 150,-12 150,-6 156,0 162,0 162,0 269.5,0 269.5,0 275.5,0 281.5,-6 281.5,-12 281.5,-12 281.5,-56 281.5,-56 281.5,-62 275.5,-68 269.5,-68"/>
<text text-anchor="start" x="185.75" y="-50.7" font-family="Helvetica,sans-Serif" font-size="14.00">gini = &#45;0.0</text>
<text text-anchor="start" x="178.62" y="-35.7" font-family="Helvetica,sans-Serif" font-size="14.00">samples = 2</text>
<text text-anchor="start" x="158" y="-20.7" font-family="Helvetica,sans-Serif" font-size="14.00">value = [0.0, 1.734]</text>
<text text-anchor="start" x="188.75" y="-5.7" font-family="Helvetica,sans-Serif" font-size="14.00">class = 1</text>
</g>
<!-- 13&#45;&gt;16 -->
<g id="edge7" class="edge">
<title>13&#45;&gt;16</title>
<path fill="none" stroke="black" d="M168.68,-103.73C174.49,-95.24 180.63,-86.28 186.48,-77.73"/>
<polygon fill="black" stroke="black" points="189.32,-79.78 192.09,-69.55 183.55,-75.82 189.32,-79.78"/>
</g>
<!-- 5 -->
<g id="node12" class="node">
<title>5</title>
<path fill="#fae7da" stroke="black" d="M605.88,-425C605.88,-425 461.62,-425 461.62,-425 455.62,-425 449.62,-419 449.62,-413 449.62,-413 449.62,-354 449.62,-354 449.62,-348 455.62,-342 461.62,-342 461.62,-342 605.88,-342 605.88,-342 611.88,-342 617.88,-348 617.88,-354 617.88,-354 617.88,-413 617.88,-413 617.88,-419 611.88,-425 605.88,-425"/>
<text text-anchor="start" x="457.62" y="-407.7" font-family="Helvetica,sans-Serif" font-size="14.00">PEER_PRESSURE ≤ 1.5</text>
<text text-anchor="start" x="498.5" y="-392.7" font-family="Helvetica,sans-Serif" font-size="14.00">gini = 0.495</text>
<text text-anchor="start" x="492.88" y="-377.7" font-family="Helvetica,sans-Serif" font-size="14.00">samples = 33</text>
<text text-anchor="start" x="461" y="-362.7" font-family="Helvetica,sans-Serif" font-size="14.00">value = [33.404, 27.159]</text>
<text text-anchor="start" x="506.75" y="-347.7" font-family="Helvetica,sans-Serif" font-size="14.00">class = 0</text>
</g>
<!-- 2&#45;&gt;5 -->
<g id="edge11" class="edge">
<title>2&#45;&gt;5</title>
<path fill="none" stroke="black" d="M533.75,-460.58C533.75,-452.79 533.75,-444.53 533.75,-436.45"/>
<polygon fill="black" stroke="black" points="537.25,-436.71 533.75,-426.71 530.25,-436.71 537.25,-436.71"/>
</g>
<!-- 6 -->
<g id="node17" class="node">
<title>6</title>
<path fill="#399de5" stroke="black" d="M763.25,-417.5C763.25,-417.5 648.25,-417.5 648.25,-417.5 642.25,-417.5 636.25,-411.5 636.25,-405.5 636.25,-405.5 636.25,-361.5 636.25,-361.5 636.25,-355.5 642.25,-349.5 648.25,-349.5 648.25,-349.5 763.25,-349.5 763.25,-349.5 769.25,-349.5 775.25,-355.5 775.25,-361.5 775.25,-361.5 775.25,-405.5 775.25,-405.5 775.25,-411.5 769.25,-417.5 763.25,-417.5"/>
<text text-anchor="start" x="678" y="-400.2" font-family="Helvetica,sans-Serif" font-size="14.00">gini = 0.0</text>
<text text-anchor="start" x="664.88" y="-385.2" font-family="Helvetica,sans-Serif" font-size="14.00">samples = 29</text>
<text text-anchor="start" x="644.25" y="-370.2" font-family="Helvetica,sans-Serif" font-size="14.00">value = [0.0, 26.581]</text>
<text text-anchor="start" x="678.75" y="-355.2" font-family="Helvetica,sans-Serif" font-size="14.00">class = 1</text>
</g>
<!-- 2&#45;&gt;6 -->
<g id="edge16" class="edge">
<title>2&#45;&gt;6</title>
<path fill="none" stroke="black" d="M593.91,-460.58C611.24,-448.79 630.11,-435.95 647.33,-424.24"/>
<polygon fill="black" stroke="black" points="649.15,-427.23 655.45,-418.71 645.22,-421.44 649.15,-427.23"/>
</g>
<!-- 7 -->
<g id="node13" class="node">
<title>7</title>
<path fill="#eba069" stroke="black" d="M552,-306C552,-306 429.5,-306 429.5,-306 423.5,-306 417.5,-300 417.5,-294 417.5,-294 417.5,-235 417.5,-235 417.5,-229 423.5,-223 429.5,-223 429.5,-223 552,-223 552,-223 558,-223 564,-229 564,-235 564,-235 564,-294 564,-294 564,-300 558,-306 552,-306"/>
<text text-anchor="start" x="444.62" y="-288.7" font-family="Helvetica,sans-Serif" font-size="14.00">FATIGUE ≤ 1.5</text>
<text text-anchor="start" x="455.5" y="-273.7" font-family="Helvetica,sans-Serif" font-size="14.00">gini = 0.314</text>
<text text-anchor="start" x="449.88" y="-258.7" font-family="Helvetica,sans-Serif" font-size="14.00">samples = 12</text>
<text text-anchor="start" x="425.5" y="-243.7" font-family="Helvetica,sans-Serif" font-size="14.00">value = [33.404, 8.09]</text>
<text text-anchor="start" x="463.75" y="-228.7" font-family="Helvetica,sans-Serif" font-size="14.00">class = 0</text>
</g>
<!-- 5&#45;&gt;7 -->
<g id="edge12" class="edge">
<title>5&#45;&gt;7</title>
<path fill="none" stroke="black" d="M518.71,-341.58C515.78,-333.61 512.67,-325.15 509.64,-316.89"/>
<polygon fill="black" stroke="black" points="512.97,-315.8 506.23,-307.62 506.39,-318.21 512.97,-315.8"/>
</g>
<!-- 8 -->
<g id="node16" class="node">
<title>8</title>
<path fill="#399de5" stroke="black" d="M709.25,-298.5C709.25,-298.5 594.25,-298.5 594.25,-298.5 588.25,-298.5 582.25,-292.5 582.25,-286.5 582.25,-286.5 582.25,-242.5 582.25,-242.5 582.25,-236.5 588.25,-230.5 594.25,-230.5 594.25,-230.5 709.25,-230.5 709.25,-230.5 715.25,-230.5 721.25,-236.5 721.25,-242.5 721.25,-242.5 721.25,-286.5 721.25,-286.5 721.25,-292.5 715.25,-298.5 709.25,-298.5"/>
<text text-anchor="start" x="624" y="-281.2" font-family="Helvetica,sans-Serif" font-size="14.00">gini = 0.0</text>
<text text-anchor="start" x="610.88" y="-266.2" font-family="Helvetica,sans-Serif" font-size="14.00">samples = 21</text>
<text text-anchor="start" x="590.25" y="-251.2" font-family="Helvetica,sans-Serif" font-size="14.00">value = [0.0, 19.069]</text>
<text text-anchor="start" x="624.75" y="-236.2" font-family="Helvetica,sans-Serif" font-size="14.00">class = 1</text>
</g>
<!-- 5&#45;&gt;8 -->
<g id="edge15" class="edge">
<title>5&#45;&gt;8</title>
<path fill="none" stroke="black" d="M575.02,-341.58C586.36,-330.34 598.66,-318.14 610.02,-306.87"/>
<polygon fill="black" stroke="black" points="612.39,-309.45 617.03,-299.93 607.46,-304.48 612.39,-309.45"/>
</g>
<!-- 11 -->
<g id="node14" class="node">
<title>11</title>
<path fill="#e88e4e" stroke="black" d="M532.75,-179.5C532.75,-179.5 402.75,-179.5 402.75,-179.5 396.75,-179.5 390.75,-173.5 390.75,-167.5 390.75,-167.5 390.75,-123.5 390.75,-123.5 390.75,-117.5 396.75,-111.5 402.75,-111.5 402.75,-111.5 532.75,-111.5 532.75,-111.5 538.75,-111.5 544.75,-117.5 544.75,-123.5 544.75,-123.5 544.75,-167.5 544.75,-167.5 544.75,-173.5 538.75,-179.5 532.75,-179.5"/>
<text text-anchor="start" x="436.25" y="-162.2" font-family="Helvetica,sans-Serif" font-size="14.00">gini = 0.17</text>
<text text-anchor="start" x="430.62" y="-147.2" font-family="Helvetica,sans-Serif" font-size="14.00">samples = 8</text>
<text text-anchor="start" x="398.75" y="-132.2" font-family="Helvetica,sans-Serif" font-size="14.00">value = [33.404, 3.467]</text>
<text text-anchor="start" x="440.75" y="-117.2" font-family="Helvetica,sans-Serif" font-size="14.00">class = 0</text>
</g>
<!-- 7&#45;&gt;11 -->
<g id="edge13" class="edge">
<title>7&#45;&gt;11</title>
<path fill="none" stroke="black" d="M482.71,-222.58C480.69,-212.32 478.52,-201.27 476.47,-190.85"/>
<polygon fill="black" stroke="black" points="479.96,-190.48 474.6,-181.35 473.09,-191.83 479.96,-190.48"/>
</g>
<!-- 12 -->
<g id="node15" class="node">
<title>12</title>
<path fill="#399de5" stroke="black" d="M682.5,-179.5C682.5,-179.5 575,-179.5 575,-179.5 569,-179.5 563,-173.5 563,-167.5 563,-167.5 563,-123.5 563,-123.5 563,-117.5 569,-111.5 575,-111.5 575,-111.5 682.5,-111.5 682.5,-111.5 688.5,-111.5 694.5,-117.5 694.5,-123.5 694.5,-123.5 694.5,-167.5 694.5,-167.5 694.5,-173.5 688.5,-179.5 682.5,-179.5"/>
<text text-anchor="start" x="601" y="-162.2" font-family="Helvetica,sans-Serif" font-size="14.00">gini = 0.0</text>
<text text-anchor="start" x="591.62" y="-147.2" font-family="Helvetica,sans-Serif" font-size="14.00">samples = 4</text>
<text text-anchor="start" x="571" y="-132.2" font-family="Helvetica,sans-Serif" font-size="14.00">value = [0.0, 4.623]</text>
<text text-anchor="start" x="601.75" y="-117.2" font-family="Helvetica,sans-Serif" font-size="14.00">class = 1</text>
</g>
<!-- 7&#45;&gt;12 -->
<g id="edge14" class="edge">
<title>7&#45;&gt;12</title>
<path fill="none" stroke="black" d="M539.02,-222.58C552.53,-211.12 567.22,-198.67 580.72,-187.22"/>
<polygon fill="black" stroke="black" points="582.88,-189.98 588.25,-180.84 578.36,-184.64 582.88,-189.98"/>
</g>
</g>
</svg>
